<svg width="16" height="16" viewBox="0 0 16 16" fill="none" xmlns="http://www.w3.org/2000/svg">
<path d="M0.706772 14.2684C1.21546 14.8208 1.93216 15.1349 2.68307 15.1348H12.6353C13.3864 15.1351 14.1034 14.8208 14.6123 14.2682C15.1212 13.7156 15.3755 12.9752 15.3134 12.2265L15.1455 10.1562H15.1456C15.0866 9.48516 14.779 8.8604 14.2833 8.40442C13.7875 7.94844 13.1392 7.69405 12.4657 7.69124H12.0022C12.5321 6.70855 12.7396 5.584 12.5951 4.47687C12.4508 3.36978 11.9621 2.33602 11.1979 1.52197C10.28 0.55052 9.00233 0 7.6657 0C6.32916 0 5.05163 0.55049 4.1335 1.52197C3.3703 2.33554 2.88199 3.36825 2.73768 4.47441C2.59336 5.58058 2.80022 6.70405 3.32919 7.68608H2.85399C2.18026 7.68983 1.5322 7.94528 1.03697 8.40232C0.541746 8.85923 0.235242 9.48483 0.177491 10.1561L0.00952838 12.2264C-0.0536045 12.9745 0.199041 13.715 0.706434 14.2683L0.706772 14.2684ZM5.09774 2.45233C5.76208 1.74829 6.68717 1.34922 7.65511 1.34922C8.62304 1.34922 9.54813 1.74829 10.2125 2.45233C10.9033 3.18591 11.2879 4.15562 11.2879 5.16325C11.2879 6.17089 10.9033 7.1406 10.2125 7.87417L7.66014 10.5441L5.09774 7.87417C4.40692 7.1406 4.02228 6.17089 4.02228 5.16325C4.02228 4.15562 4.40692 3.18591 5.09774 2.45233ZM1.34485 12.3374L1.51281 10.267V10.2669C1.54069 9.9302 1.69436 9.61641 1.94336 9.38802C2.19238 9.1595 2.51823 9.03336 2.85613 9.03453H4.35057L7.17486 11.9797C7.30148 12.1116 7.47648 12.1861 7.65929 12.1861C7.84211 12.1861 8.01701 12.1116 8.14373 11.9797L10.9714 9.03453H12.4659C12.8037 9.03335 13.1296 9.1595 13.3786 9.38802C13.6276 9.61642 13.7812 9.9302 13.8091 10.2669L13.9771 12.3373V12.3374C14.0081 12.7125 13.8804 13.0833 13.6251 13.3597C13.3696 13.6361 13.0101 13.7928 12.6337 13.7915H2.68301C2.30667 13.7928 1.9471 13.6361 1.69175 13.3597C1.43629 13.0833 1.30863 12.7125 1.33967 12.3374H1.34485Z" fill="#2A3746"/>
<path d="M7.66003 6.65897C8.22072 6.65897 8.75847 6.43631 9.15492 6.03984C9.55129 5.64335 9.77405 5.10564 9.77405 4.54495C9.77405 3.98427 9.55127 3.44652 9.15492 3.05015C8.75844 2.65366 8.22072 2.43091 7.66003 2.43091C7.09935 2.43091 6.5616 2.65369 6.16514 3.05015C5.76878 3.44652 5.54602 3.98424 5.54602 4.54495C5.54696 5.1054 5.76997 5.64254 6.16622 6.03879C6.56247 6.43516 7.09962 6.65816 7.66006 6.659L7.66003 6.65897ZM7.66003 3.77422C7.86442 3.77422 8.06048 3.85539 8.20504 3.99993C8.34957 4.14446 8.43074 4.34053 8.43074 4.54493C8.43074 4.74932 8.34957 4.94538 8.20504 5.08993C8.0605 5.23447 7.86444 5.31564 7.66003 5.31564C7.45563 5.31564 7.25959 5.23447 7.11503 5.08993C6.9705 4.9454 6.88933 4.74934 6.88933 4.54493C6.8898 4.34066 6.97108 4.14494 7.1155 4.00041C7.25992 3.85599 7.45577 3.7747 7.66003 3.77423L7.66003 3.77422Z" fill="#2A3746"/>
</svg>
