<svg width="14" height="11" viewBox="0 0 14 11" fill="none" xmlns="http://www.w3.org/2000/svg">
<path d="M9.48177 7.78167V8.3352H3.48525C3.32713 8.3352 3.16893 8.38787 3.05034 8.48017L1.64022 9.57404V1.04713H9.48182V3.56435L10.3121 2.62858V0.928516C10.3121 0.533118 9.98265 0.216889 9.6005 0.216889L1.52144 0.216797C1.12604 0.216797 0.809814 0.53312 0.809814 0.928424V9.798C0.809814 10.0748 0.95479 10.312 1.20521 10.4438C1.31066 10.4965 1.4161 10.5229 1.52154 10.5229C1.66651 10.5229 1.82463 10.4702 1.95645 10.3779L3.48525 9.1654H9.60038C9.99578 9.1654 10.312 8.83592 10.312 8.45377V6.99089L9.78489 7.58393C9.70574 7.66308 9.60029 7.74214 9.4817 7.78167L9.48177 7.78167Z" fill="#2A3746" stroke="#2A3746" stroke-width="0.2"/>
<path d="M8.76782 5.34928L11.2394 2.59131L12.4171 3.64677L9.94554 6.40474L8.76782 5.34928Z" fill="#2A3746"/>
<path d="M13.2509 2.36507L12.4338 1.62706C12.3415 1.53476 12.1834 1.548 12.1043 1.6402L11.6167 2.19373L12.7896 3.24808L13.2772 2.69456C13.3563 2.60226 13.3431 2.44413 13.2509 2.36508L13.2509 2.36507Z" fill="#2A3746"/>
<path d="M8.17686 7.49204L9.17845 7.2021C9.21798 7.18895 9.25751 7.16257 9.28389 7.13618L9.57384 6.81986L8.40089 5.7655L8.11095 6.08183C8.08457 6.12136 8.05827 6.16089 8.05827 6.20042L7.88692 7.22839C7.86062 7.39975 8.01874 7.53158 8.17686 7.49205V7.49204Z" fill="#2A3746"/>
<path d="M7.41049 3.83317C7.59914 3.61304 7.57823 3.29283 7.36852 3.11276C7.13789 2.9327 6.80242 2.95266 6.61377 3.15283L5.31397 4.5737L4.68498 3.97333C4.47527 3.77316 4.13992 3.77316 3.93023 3.97333C3.72052 4.1735 3.72052 4.49359 3.93023 4.69373L4.95756 5.67432C5.06242 5.77441 5.18819 5.81447 5.33486 5.81447H5.35577C5.5026 5.81447 5.64928 5.75445 5.73307 5.6344L7.41049 3.83317Z" fill="#2A3746"/>
</svg>
