<svg width="23" height="23" viewBox="0 0 23 23" fill="none" xmlns="http://www.w3.org/2000/svg">
<path opacity="0.4" d="M19.55 2.3H17.25V1.15C17.25 0.845001 17.1288 0.552494 16.9132 0.336827C16.6975 0.12116 16.405 0 16.1 0C15.795 0 15.5025 0.12116 15.2868 0.336827C15.0712 0.552494 14.95 0.845001 14.95 1.15V2.3H8.05V1.15C8.05 0.845001 7.92884 0.552494 7.71317 0.336827C7.49751 0.12116 7.205 0 6.9 0C6.595 0 6.30249 0.12116 6.08683 0.336827C5.87116 0.552494 5.75 0.845001 5.75 1.15V2.3H3.45C2.535 2.3 1.65748 2.66348 1.01048 3.31048C0.363481 3.95748 0 4.835 0 5.75V19.55C0 20.465 0.363481 21.3425 1.01048 21.9895C1.65748 22.6365 2.535 23 3.45 23H19.55C20.465 23 21.3425 22.6365 21.9895 21.9895C22.6365 21.3425 23 20.465 23 19.55V5.75C23 4.835 22.6365 3.95748 21.9895 3.31048C21.3425 2.66348 20.465 2.3 19.55 2.3V2.3ZM20.7 19.55C20.7 19.855 20.5788 20.1475 20.3632 20.3632C20.1475 20.5788 19.855 20.7 19.55 20.7H3.45C3.145 20.7 2.85249 20.5788 2.63683 20.3632C2.42116 20.1475 2.3 19.855 2.3 19.55V11.5H20.7V19.55ZM20.7 9.2H2.3V5.75C2.3 5.445 2.42116 5.15249 2.63683 4.93683C2.85249 4.72116 3.145 4.6 3.45 4.6H5.75V5.75C5.75 6.055 5.87116 6.34751 6.08683 6.56317C6.30249 6.77884 6.595 6.9 6.9 6.9C7.205 6.9 7.49751 6.77884 7.71317 6.56317C7.92884 6.34751 8.05 6.055 8.05 5.75V4.6H14.95V5.75C14.95 6.055 15.0712 6.34751 15.2868 6.56317C15.5025 6.77884 15.795 6.9 16.1 6.9C16.405 6.9 16.6975 6.77884 16.9132 6.56317C17.1288 6.34751 17.25 6.055 17.25 5.75V4.6H19.55C19.855 4.6 20.1475 4.72116 20.3632 4.93683C20.5788 5.15249 20.7 5.445 20.7 5.75V9.2Z" fill="#80B9FF"/>
</svg>
