<svg width="13" height="13" viewBox="0 0 13 13" fill="none" xmlns="http://www.w3.org/2000/svg">
<path fill-rule="evenodd" clip-rule="evenodd" d="M6.50303 0.746826C8.13323 0.746826 9.66585 1.38167 10.8186 2.53437C11.9713 3.68713 12.6062 5.21975 12.6062 6.84995C12.6062 8.48015 11.9713 10.0128 10.8186 11.1655C9.66585 12.3182 8.13323 12.9531 6.50303 12.9531C4.87283 12.9531 3.34018 12.3182 2.18745 11.1655C1.03475 10.0128 0.399902 8.48015 0.399902 6.84995C0.399902 5.21975 1.03475 3.6871 2.18745 2.53437C3.34018 1.38167 4.8728 0.746826 6.50303 0.746826ZM6.00807 8.80817L9.41879 5.39743C9.55844 5.25777 9.55844 5.03136 9.41879 4.8917C9.27913 4.75205 9.05269 4.75205 8.91306 4.8917L5.75522 8.04959L4.09288 6.38728C3.95322 6.24762 3.72679 6.24762 3.58715 6.38728C3.4475 6.52696 3.4475 6.75337 3.58715 6.893L5.50234 8.80817C5.57217 8.878 5.66369 8.9129 5.75522 8.9129C5.84672 8.9129 5.93824 8.878 6.00807 8.80817Z" fill="#16233C"/>
</svg>
