<svg width="8" height="9" viewBox="0 0 8 9" fill="none" xmlns="http://www.w3.org/2000/svg">
<path d="M3.996 0.397766C1.788 0.397766 0 2.18315 0 4.38299C0 6.58283 1.788 8.36821 3.996 8.36821C6.208 8.36821 8 6.58283 8 4.38299C8 2.18315 6.208 0.397766 3.996 0.397766ZM5.6 5.97708C5.56299 6.01402 5.51904 6.04333 5.47065 6.06333C5.42226 6.08333 5.37039 6.09362 5.318 6.09362C5.26561 6.09362 5.21374 6.08333 5.16535 6.06333C5.11696 6.04333 5.07301 6.01402 5.036 5.97708L3.72 4.66594C3.6822 4.62903 3.65214 4.58501 3.63154 4.53644C3.61094 4.48787 3.60022 4.43572 3.6 4.38299V2.7889C3.6 2.56971 3.78 2.39038 4 2.39038C4.22 2.39038 4.4 2.56971 4.4 2.7889V4.21959L5.6 5.41516C5.756 5.57058 5.756 5.82165 5.6 5.97708Z" fill="#16233C"/>
</svg>
