<svg width="8" height="9" viewBox="0 0 8 9" fill="none" xmlns="http://www.w3.org/2000/svg">
<path d="M3.996 0.754883C1.788 0.754883 0 2.54025 0 4.74008C0 6.93991 1.788 8.72528 3.996 8.72528C6.208 8.72528 8 6.93991 8 4.74008C8 2.54025 6.208 0.754883 3.996 0.754883ZM5.6 6.33416C5.56299 6.37111 5.51904 6.40042 5.47065 6.42041C5.42226 6.44041 5.37039 6.45071 5.318 6.45071C5.26561 6.45071 5.21374 6.44041 5.16535 6.42041C5.11696 6.40042 5.07301 6.37111 5.036 6.33416L3.72 5.02303C3.6822 4.98612 3.65214 4.94211 3.63154 4.89354C3.61094 4.84497 3.60022 4.79281 3.6 4.74008V3.146C3.6 2.92682 3.78 2.74748 4 2.74748C4.22 2.74748 4.4 2.92682 4.4 3.146V4.57669L5.6 5.77225C5.756 5.92767 5.756 6.17874 5.6 6.33416Z" fill="#16233C"/>
</svg>
