<svg width="334" height="2" viewBox="0 0 334 2" fill="none" xmlns="http://www.w3.org/2000/svg">
<path opacity="0.2" d="M0.240023 0.892H3.73702V1.971H0.240023V0.892ZM4.95467 0.892H8.45167V1.971H4.95467V0.892ZM9.66932 0.892H13.1663V1.971H9.66932V0.892ZM14.384 0.892H17.881V1.971H14.384V0.892ZM19.0986 0.892H22.5956V1.971H19.0986V0.892ZM23.8133 0.892H27.3103V1.971H23.8133V0.892ZM28.5279 0.892H32.0249V1.971H28.5279V0.892ZM33.2426 0.892H36.7396V1.971H33.2426V0.892ZM37.9572 0.892H41.4542V1.971H37.9572V0.892ZM42.6719 0.892H46.1689V1.971H42.6719V0.892ZM47.3865 0.892H50.8835V1.971H47.3865V0.892ZM52.1012 0.892H55.5982V1.971H52.1012V0.892ZM56.8158 0.892H60.3128V1.971H56.8158V0.892ZM61.5305 0.892H65.0275V1.971H61.5305V0.892ZM66.2451 0.892H69.7421V1.971H66.2451V0.892ZM70.9598 0.892H74.4568V1.971H70.9598V0.892ZM75.6744 0.892H79.1714V1.971H75.6744V0.892ZM80.389 0.892H83.886V1.971H80.389V0.892ZM85.1037 0.892H88.6007V1.971H85.1037V0.892ZM89.8183 0.892H93.3153V1.971H89.8183V0.892ZM94.533 0.892H98.03V1.971H94.533V0.892ZM99.2476 0.892H102.745V1.971H99.2476V0.892ZM103.962 0.892H107.459V1.971H103.962V0.892ZM108.677 0.892H112.174V1.971H108.677V0.892ZM113.392 0.892H116.889V1.971H113.392V0.892ZM118.106 0.892H121.603V1.971H118.106V0.892ZM122.821 0.892H126.318V1.971H122.821V0.892ZM127.536 0.892H131.033V1.971H127.536V0.892ZM132.25 0.892H135.747V1.971H132.25V0.892ZM136.965 0.892H140.462V1.971H136.965V0.892ZM141.679 0.892H145.176V1.971H141.679V0.892ZM146.394 0.892H149.891V1.971H146.394V0.892ZM151.109 0.892H154.606V1.971H151.109V0.892ZM155.823 0.892H159.32V1.971H155.823V0.892ZM160.538 0.892H164.035V1.971H160.538V0.892ZM165.253 0.892H168.75V1.971H165.253V0.892ZM169.967 0.892H173.464V1.971H169.967V0.892ZM174.682 0.892H178.179V1.971H174.682V0.892ZM179.397 0.892H182.894V1.971H179.397V0.892ZM184.111 0.892H187.608V1.971H184.111V0.892ZM188.826 0.892H192.323V1.971H188.826V0.892ZM193.541 0.892H197.038V1.971H193.541V0.892ZM198.255 0.892H201.752V1.971H198.255V0.892ZM202.97 0.892H206.467V1.971H202.97V0.892ZM207.685 0.892H211.182V1.971H207.685V0.892ZM212.399 0.892H215.896V1.971H212.399V0.892ZM217.114 0.892H220.611V1.971H217.114V0.892ZM221.828 0.892H225.325V1.971H221.828V0.892ZM226.543 0.892H230.04V1.971H226.543V0.892ZM231.258 0.892H234.755V1.971H231.258V0.892ZM235.972 0.892H239.469V1.971H235.972V0.892ZM240.687 0.892H244.184V1.971H240.687V0.892ZM245.402 0.892H248.899V1.971H245.402V0.892ZM250.116 0.892H253.613V1.971H250.116V0.892ZM254.831 0.892H258.328V1.971H254.831V0.892ZM259.546 0.892H263.043V1.971H259.546V0.892ZM264.26 0.892H267.757V1.971H264.26V0.892ZM268.975 0.892H272.472V1.971H268.975V0.892ZM273.69 0.892H277.187V1.971H273.69V0.892ZM278.404 0.892H281.901V1.971H278.404V0.892ZM283.119 0.892H286.616V1.971H283.119V0.892ZM287.834 0.892H291.331V1.971H287.834V0.892ZM292.548 0.892H296.045V1.971H292.548V0.892ZM297.263 0.892H300.76V1.971H297.263V0.892ZM301.978 0.892H305.475V1.971H301.978V0.892ZM306.692 0.892H310.189V1.971H306.692V0.892ZM311.407 0.892H314.904V1.971H311.407V0.892ZM316.121 0.892H319.618V1.971H316.121V0.892ZM320.836 0.892H324.333V1.971H320.836V0.892ZM325.551 0.892H329.048V1.971H325.551V0.892ZM330.265 0.892H333.762V1.971H330.265V0.892Z" fill="#43444F"/>
</svg>
