<svg width="10" height="11" viewBox="0 0 10 11" fill="none" xmlns="http://www.w3.org/2000/svg">
<path d="M8.5 1.1H7.5V0.55C7.5 0.404131 7.44732 0.264236 7.35355 0.161091C7.25979 0.0579462 7.13261 0 7 0C6.86739 0 6.74021 0.0579462 6.64645 0.161091C6.55268 0.264236 6.5 0.404131 6.5 0.55V1.1H3.5V0.55C3.5 0.404131 3.44732 0.264236 3.35355 0.161091C3.25979 0.0579462 3.13261 0 3 0C2.86739 0 2.74021 0.0579462 2.64645 0.161091C2.55268 0.264236 2.5 0.404131 2.5 0.55V1.1H1.5C1.10218 1.1 0.720644 1.27384 0.43934 1.58327C0.158035 1.89271 0 2.31239 0 2.75V9.35C0 9.78761 0.158035 10.2073 0.43934 10.5167C0.720644 10.8262 1.10218 11 1.5 11H8.5C8.89782 11 9.27936 10.8262 9.56066 10.5167C9.84196 10.2073 10 9.78761 10 9.35V2.75C10 2.31239 9.84196 1.89271 9.56066 1.58327C9.27936 1.27384 8.89782 1.1 8.5 1.1V1.1ZM9 9.35C9 9.49587 8.94732 9.63576 8.85355 9.73891C8.75979 9.84205 8.63261 9.9 8.5 9.9H1.5C1.36739 9.9 1.24021 9.84205 1.14645 9.73891C1.05268 9.63576 1 9.49587 1 9.35V5.5H9V9.35ZM9 4.4H1V2.75C1 2.60413 1.05268 2.46424 1.14645 2.36109C1.24021 2.25795 1.36739 2.2 1.5 2.2H2.5V2.75C2.5 2.89587 2.55268 3.03576 2.64645 3.13891C2.74021 3.24205 2.86739 3.3 3 3.3C3.13261 3.3 3.25979 3.24205 3.35355 3.13891C3.44732 3.03576 3.5 2.89587 3.5 2.75V2.2H6.5V2.75C6.5 2.89587 6.55268 3.03576 6.64645 3.13891C6.74021 3.24205 6.86739 3.3 7 3.3C7.13261 3.3 7.25979 3.24205 7.35355 3.13891C7.44732 3.03576 7.5 2.89587 7.5 2.75V2.2H8.5C8.63261 2.2 8.75979 2.25795 8.85355 2.36109C8.94732 2.46424 9 2.60413 9 2.75V4.4Z" fill="#2A3746"/>
</svg>
