<svg width="20" height="22" viewBox="0 0 20 22" fill="none" xmlns="http://www.w3.org/2000/svg">
<path d="M7.04541 8.80695V15.8524C7.04541 16.086 7.1382 16.31 7.30336 16.4751C7.46852 16.6403 7.69252 16.7331 7.92609 16.7331C8.15966 16.7331 8.38367 16.6403 8.54883 16.4751C8.71399 16.31 8.80677 16.086 8.80677 15.8524V8.80695C8.80677 8.57338 8.71399 8.34938 8.54883 8.18422C8.38367 8.01906 8.15966 7.92627 7.92609 7.92627C7.69252 7.92627 7.46852 8.01906 7.30336 8.18422C7.1382 8.34938 7.04541 8.57338 7.04541 8.80695Z" fill="white"/>
<path d="M11.449 7.92627C11.6826 7.92627 11.9066 8.01906 12.0718 8.18422C12.2369 8.34938 12.3297 8.57338 12.3297 8.80695V15.8524C12.3297 16.086 12.2369 16.31 12.0718 16.4751C11.9066 16.6403 11.6826 16.7331 11.449 16.7331C11.2155 16.7331 10.9915 16.6403 10.8263 16.4751C10.6611 16.31 10.5684 16.086 10.5684 15.8524V8.80695C10.5684 8.57338 10.6611 8.34938 10.8263 8.18422C10.9915 8.01906 11.2155 7.92627 11.449 7.92627Z" fill="white"/>
<path d="M13.2102 3.52273H18.4943C18.7279 3.52273 18.9519 3.61551 19.1171 3.78067C19.2822 3.94583 19.375 4.16984 19.375 4.40341C19.375 4.63698 19.2822 4.86099 19.1171 5.02614C18.9519 5.1913 18.7279 5.28409 18.4943 5.28409H17.5203L16.1957 17.2191C16.0761 18.2962 15.5634 19.2914 14.7558 20.0142C13.9483 20.7369 12.9025 21.1365 11.8188 21.1364H7.55625C6.47248 21.1365 5.42673 20.7369 4.61916 20.0142C3.81158 19.2914 3.29891 18.2962 3.17926 17.2191L1.85295 5.28409H0.880682C0.64711 5.28409 0.423106 5.1913 0.257946 5.02614C0.092786 4.86099 0 4.63698 0 4.40341C0 4.16984 0.092786 3.94583 0.257946 3.78067C0.423106 3.61551 0.64711 3.52273 0.880682 3.52273H6.16477C6.16477 2.58844 6.53592 1.69242 7.19656 1.03178C7.85719 0.371143 8.75321 0 9.6875 0C10.6218 0 11.5178 0.371143 12.1784 1.03178C12.8391 1.69242 13.2102 2.58844 13.2102 3.52273ZM9.6875 1.76136C9.22036 1.76136 8.77235 1.94694 8.44203 2.27726C8.11171 2.60757 7.92614 3.05558 7.92614 3.52273H11.4489C11.4489 3.05558 11.2633 2.60757 10.933 2.27726C10.6027 1.94694 10.1546 1.76136 9.6875 1.76136ZM3.62665 5.28409L4.93006 17.0253C5.00201 17.6715 5.30968 18.2684 5.79421 18.702C6.27874 19.1355 6.9061 19.3751 7.55625 19.375H11.8188C12.4686 19.3747 13.0955 19.1348 13.5797 18.7014C14.0638 18.2679 14.3713 17.6712 14.4432 17.0253L15.7501 5.28409H3.62841H3.62665Z" fill="white"/>
</svg>
