<svg width="37" height="37" viewBox="0 0 37 37" fill="none" xmlns="http://www.w3.org/2000/svg">
<rect width="37" height="37" rx="8" fill="#CFD8E7"/>
<path d="M19.8673 21.3413C20.3304 20.878 20.5906 20.2496 20.5904 19.5945C20.5903 18.9394 20.33 18.3112 19.8668 17.848C19.4034 17.3848 18.7751 17.1245 18.12 17.1245C17.4649 17.1245 16.8366 17.3848 16.3734 17.848C15.9101 18.3112 15.6498 18.9394 15.6497 19.5945C15.6495 20.2496 15.9097 20.878 16.3727 21.3413C15.8731 21.5478 15.4197 21.852 15.0391 22.2361C14.2975 22.9571 13.8792 23.9478 13.8799 24.9822V28.4373C13.8799 28.5866 13.9392 28.7297 14.0447 28.8353C14.1502 28.9407 14.2934 29 14.4426 29H21.8198C21.969 29 22.1122 28.9407 22.2177 28.8353C22.3233 28.7297 22.3825 28.5866 22.3825 28.4373V24.9822C22.3812 23.9509 21.9657 22.9634 21.229 22.2416C20.836 21.8582 20.3739 21.5527 19.8672 21.3413L19.8673 21.3413ZM18.1229 18.2463C18.4854 18.2463 18.8334 18.3903 19.0898 18.6468C19.3462 18.9033 19.4903 19.251 19.4903 19.6137C19.4903 19.9764 19.3461 20.3242 19.0898 20.5806C18.8333 20.8371 18.4854 20.9811 18.1229 20.9811C17.7603 20.9811 17.4123 20.8371 17.1559 20.5806C16.8996 20.3242 16.7554 19.9764 16.7554 19.6137C16.7554 19.2511 16.8996 18.9033 17.1559 18.6468C17.4124 18.3903 17.7603 18.2463 18.1229 18.2463ZM21.274 27.8914H14.977V24.9821C14.9779 24.2401 15.2781 23.5299 15.8099 23.0126C16.4302 22.4123 17.2596 22.0767 18.1227 22.0767C18.9859 22.0767 19.8152 22.4123 20.4355 23.0126C20.9682 23.5271 21.2687 24.236 21.2684 24.9765L21.274 27.8914Z" fill="#2A3746" stroke="#2A3746" stroke-width="0.3"/>
<path d="M25.7875 9.00061C25.0747 8.98789 24.3913 9.28507 23.9148 9.81528C23.4382 10.3455 23.2151 11.0564 23.3034 11.7639C23.3917 12.4713 23.7827 13.1057 24.375 13.5025L22.6867 17.6836L22.6869 17.6835C22.3521 16.8659 21.8045 16.1528 21.1009 15.6184C20.3972 15.084 19.5633 14.7478 18.6858 14.6448V13.8683C19.4809 13.6877 20.1352 13.1257 20.4337 12.3668C20.7321 11.6081 20.636 10.7508 20.1769 10.077C19.7179 9.40314 18.9552 9 18.1399 9C17.3247 9 16.562 9.40317 16.103 10.077C15.6439 10.7508 15.5478 11.6081 15.8463 12.3668C16.1447 13.1257 16.799 13.6877 17.5941 13.8683V14.6448C16.7139 14.7404 15.8755 15.0708 15.1667 15.6014C14.4579 16.132 13.9046 16.8434 13.565 17.661L11.8767 13.4857C12.5253 13.0324 12.9168 12.2953 12.9292 11.5041C12.9417 10.7129 12.5734 9.96396 11.9393 9.49057C11.3053 9.01718 10.4825 8.87686 9.7274 9.11355C8.97239 9.35025 8.37691 9.93513 8.12665 10.6858C7.87624 11.4364 8.00159 12.2615 8.46339 12.904C8.9252 13.5466 9.66748 13.9282 10.4587 13.9302C10.5907 13.9301 10.7225 13.9189 10.8527 13.8965L13.233 19.7489H13.2329C13.3074 19.892 13.4395 19.9963 13.5961 20.0355C13.7525 20.0745 13.9182 20.0445 14.0512 19.9531C14.184 19.8618 14.2714 19.7177 14.2909 19.5576C14.2909 18.1885 15.0213 16.9234 16.207 16.2389C17.3926 15.5542 18.8535 15.5542 20.0391 16.2389C21.2248 16.9234 21.9553 18.1886 21.9553 19.5576C21.952 19.6877 21.9941 19.8149 22.0741 19.9175C22.1541 20.0201 22.2673 20.0917 22.3942 20.1202H22.5012C22.6097 20.118 22.7152 20.0845 22.8051 20.0236C22.895 19.9625 22.9652 19.8771 23.0076 19.777L25.388 13.9246H25.3878C25.5198 13.9472 25.6535 13.9585 25.7875 13.9583C26.668 13.9583 27.4816 13.4886 27.922 12.726C28.3623 11.9633 28.3623 11.0239 27.922 10.2613C27.4816 9.4986 26.668 9.0289 25.7875 9.0289L25.7875 9.00061ZM10.4589 12.8327H10.4195C10.0593 12.8222 9.71777 12.6702 9.46917 12.4093C9.22047 12.1484 9.08481 11.8 9.09172 11.4396C9.09864 11.0794 9.24744 10.7363 9.50575 10.4852C9.7642 10.234 10.1112 10.0951 10.4716 10.0985C10.8319 10.1017 11.1764 10.2473 11.4301 10.5032C11.6837 10.7591 11.8262 11.1049 11.8263 11.4652C11.8289 11.8225 11.6867 12.1654 11.4323 12.4162C11.1797 12.684 10.8271 12.8348 10.4589 12.8327L10.4589 12.8327ZM16.756 11.4652C16.7581 11.1364 16.8785 10.8194 17.0952 10.5721C17.3122 10.325 17.6107 10.1642 17.9365 10.1192C18.262 10.0743 18.5931 10.1482 18.8687 10.3273C19.1444 10.5065 19.3462 10.7791 19.4373 11.0949C19.5283 11.4109 19.5026 11.7491 19.3647 12.0475C19.2267 12.346 18.9858 12.5848 18.6861 12.72C18.3378 12.8702 17.9428 12.8702 17.5945 12.72C17.3474 12.6156 17.1364 12.4412 16.9873 12.2181C16.8384 11.9951 16.758 11.7334 16.756 11.4652L16.756 11.4652ZM25.8215 12.8327H25.7877C25.4255 12.8311 25.0785 12.6865 24.8224 12.4305C24.5662 12.1743 24.4218 11.8274 24.4203 11.4652C24.4204 11.1044 24.563 10.7585 24.8171 10.5025C25.0711 10.2464 25.4161 10.1011 25.7767 10.0982C26.1375 10.0953 26.4846 10.2351 26.7427 10.4869C27.0009 10.7389 27.1491 11.0825 27.1549 11.4433C27.1608 11.8039 27.024 12.1523 26.7742 12.4124C26.5245 12.6727 26.1821 12.8238 25.8215 12.8327H25.8215Z" fill="#2A3746" stroke="#2A3746" stroke-width="0.3"/>
</svg>
