<svg width="37" height="37" viewBox="0 0 37 37" fill="none" xmlns="http://www.w3.org/2000/svg">
<rect opacity="0.2" width="37" height="37" rx="8" fill="#526985"/>
<path d="M26.9989 27.3075H27.2626C27.6582 27.3075 27.97 27.6311 27.97 28.0148C27.97 28.3986 27.6463 28.7222 27.2626 28.7222L9.71049 28.7224C9.51864 28.7224 9.33884 28.6504 9.20686 28.5185C8.93105 28.2427 8.93105 27.7872 9.20686 27.5114C9.33866 27.3796 9.51863 27.3075 9.69841 27.3075H9.95014L9.95031 10.6545C9.95031 9.74333 10.6936 9 11.6049 9H21.3281C22.2393 9 22.9826 9.74329 22.9826 10.6545V14.455H25.3325C26.2437 14.455 26.987 15.1983 26.987 16.1096L26.9989 27.3075ZM25.5721 27.3075V16.1216C25.5721 15.9898 25.4643 15.8817 25.3323 15.8817H22.9825V27.2954H25.5721L25.5721 27.3075ZM11.365 27.3075H21.5558V10.6545C21.5558 10.5946 21.5319 10.5346 21.4839 10.4866C21.4359 10.4386 21.376 10.4147 21.3159 10.4147H11.5927C11.5328 10.4147 11.4728 10.4386 11.4248 10.4866C11.3768 10.5346 11.3529 10.5945 11.3529 10.6545L11.3649 27.3075H11.365Z" fill="#1B2740"/>
<path d="M18.3907 22.332C18.7863 22.332 19.098 22.6557 19.098 23.0394C19.098 23.4349 18.7744 23.7467 18.3907 23.7467H14.7459C14.3504 23.7467 14.0386 23.4231 14.0386 23.0394C14.0386 22.6438 14.3622 22.332 14.7459 22.332H18.3907ZM18.3907 17.1047C18.7863 17.1047 19.098 17.4284 19.098 17.8121C19.098 18.1958 18.7744 18.5195 18.3907 18.5195H14.7459C14.3504 18.5195 14.0386 18.1958 14.0386 17.8121C14.0386 17.4284 14.3622 17.1047 14.7459 17.1047H18.3907Z" fill="#1B2740"/>
</svg>
