<svg width="37" height="37" viewBox="0 0 37 37" fill="none" xmlns="http://www.w3.org/2000/svg">
<rect opacity="0.2" width="37" height="37" rx="8" fill="#526985"/>
<path d="M28.0526 23.8193V18.3487C28.1265 18.2291 28.1762 18.0964 28.1991 17.9579C28.202 17.8194 28.1641 17.6831 28.0904 17.5659C28.0166 17.4487 27.91 17.3557 27.7839 17.2984L18.6743 13.2199C17.988 12.9267 17.2115 12.9267 16.5251 13.2199L7.39113 17.2984C7.26966 17.3593 7.16813 17.4538 7.09896 17.5707C7.02963 17.6877 6.99539 17.8221 7.0005 17.9579C7.00067 18.0962 7.04616 18.2308 7.1298 18.341C7.21362 18.4512 7.33116 18.5311 7.46438 18.5685L10.8102 19.7163L10.8104 24.0635C10.8058 24.2884 10.9163 24.5001 11.1034 24.6252C11.2915 24.7492 11.5271 24.7763 11.7383 24.6984C15.5177 23.2824 19.6817 23.2824 23.4611 24.6984L23.7054 24.7473C23.8439 24.7408 23.9785 24.6988 24.0962 24.6252C24.2768 24.4945 24.3853 24.2863 24.3892 24.0635V19.7163L26.685 18.9347V23.8192C26.1979 24.016 25.8329 24.4315 25.7003 24.9398C25.5676 25.4479 25.6833 25.9889 26.0121 26.3985C26.3409 26.8081 26.8439 27.0381 27.3688 27.0185C27.8742 27.0023 28.3456 26.7601 28.6529 26.3585C28.9602 25.957 29.0711 25.4386 28.9548 24.9466C28.8384 24.4544 28.5073 24.0407 28.0526 23.8191L28.0526 23.8193ZM23.0215 23.1112C19.4941 21.9885 15.7053 21.9885 12.178 23.1112V19.6675C15.6894 18.4466 19.5099 18.4466 23.0215 19.6675V23.1112ZM23.7543 18.4709V18.4707C19.7691 17.0308 15.4057 17.0308 11.4209 18.4707L9.54035 17.8358L17.0625 14.4654C17.3974 14.3201 17.7776 14.3201 18.1125 14.4654L25.6347 17.8358L23.7543 18.4709ZM27.3687 25.6511C27.2025 25.6516 27.064 25.5238 27.0512 25.3581C27.0512 25.1828 27.1934 25.0405 27.3687 25.0405C27.4508 25.0402 27.5294 25.0744 27.5851 25.1349C27.6408 25.1952 27.6686 25.2761 27.6617 25.3581C27.6617 25.5199 27.5306 25.6511 27.3687 25.6511L27.3687 25.6511Z" fill="#2A3746"/>
</svg>
