<svg width="37" height="37" viewBox="0 0 37 37" fill="none" xmlns="http://www.w3.org/2000/svg">
<rect width="37" height="37" rx="8" fill="#CFD8E7"/>
<path d="M10.9972 27H25.2715C26.3728 27 27.2687 26.1041 27.2687 25.0028V15.7197C27.2687 14.6184 26.3729 13.7225 25.2715 13.7225H22.2822V12.5978C22.2822 11.7167 21.5654 11 20.6844 11H15.5843C14.7033 11 13.9866 11.7167 13.9866 12.5978V13.7226L10.9972 13.7225C9.89591 13.7225 9 14.6184 9 15.7197V25.0028C9 26.1041 9.89588 27 10.9972 27V27ZM14.7855 12.5979C14.7855 12.1574 15.1438 11.799 15.5843 11.799H20.6844C21.1249 11.799 21.4833 12.1573 21.4833 12.5979V13.7227L14.7855 13.7226V12.5979ZM16.7958 17.6866L18.501 19.3918L16.2942 21.6181L14.5877 19.8947L16.7958 17.6866ZM9.79888 15.7198C9.79888 15.059 10.3364 14.5215 10.9972 14.5215H16.3737V16.9789L13.7418 19.6108C13.5863 19.7663 13.5858 20.0181 13.7404 20.1743L16.0092 22.4658C16.084 22.5413 16.1858 22.5839 16.2921 22.5842H16.2931C16.3991 22.5842 16.5007 22.5421 16.5756 22.4672L16.7846 22.2582L19.3484 19.6717C19.5032 19.5155 19.5026 19.2636 19.3471 19.1081L17.1726 16.9335V14.5215H25.2717C25.9325 14.5215 26.47 15.059 26.47 15.7198V25.0029C26.47 25.6637 25.9324 26.2012 25.2717 26.2012H10.9974C10.3366 26.2012 9.79907 25.6636 9.79907 25.0029L9.79888 15.7198Z" fill="#2A3746" stroke="#2A3746" stroke-width="0.7"/>
</svg>
