<svg width="20" height="18" viewBox="0 0 20 18" fill="none" xmlns="http://www.w3.org/2000/svg">
<path d="M12.2287 4.0127H6.15615C5.78012 4.0127 5.47546 4.31621 5.47546 4.69084C5.47546 5.06526 5.78011 5.36899 6.15615 5.36899H12.2287C12.6047 5.36899 12.9094 5.06526 12.9094 4.69084C12.9094 4.31621 12.6047 4.0127 12.2287 4.0127Z" fill="#BFC3C7"/>
<path d="M12.2287 9.88306H6.15616C5.78056 9.88392 5.47681 10.1872 5.47681 10.5612C5.47681 10.9352 5.78059 11.2387 6.15616 11.2394H12.2287C12.6043 11.2388 12.9081 10.9352 12.9081 10.5612C12.9081 10.1872 12.6043 9.88394 12.2287 9.88306Z" fill="#BFC3C7"/>
<path d="M12.2287 6.90112H6.15615C5.78012 6.90112 5.47546 7.20486 5.47546 7.57928C5.47546 7.95371 5.78011 8.25745 6.15615 8.25745H12.2287C12.6047 8.25745 12.9094 7.95371 12.9094 7.57928C12.9094 7.20486 12.6047 6.90112 12.2287 6.90112Z" fill="#BFC3C7"/>
<path d="M16.907 0.241455C16.8625 0.241455 16.8189 0.245779 16.7749 0.248157H16.7751C16.753 0.244698 16.7308 0.242536 16.7087 0.241455H5.4585C4.72376 0.24232 4.01969 0.533516 3.5002 1.05107C2.98074 1.56861 2.68848 2.27033 2.68736 3.00213C2.68736 3.0192 2.69127 3.03498 2.69236 3.05185C2.69105 3.06849 2.68736 3.08449 2.68736 3.10157V13.2509H0.680683C0.500151 13.2509 0.326996 13.3222 0.199407 13.4496C0.0716016 13.5767 0 13.7492 0 13.9291C0 13.9481 0.00412203 13.9663 0.00564078 13.9848C0.00412192 14.0037 0 14.0216 0 14.0406V14.6072C0.000867942 15.339 0.293145 16.0407 0.812616 16.5583C1.33208 17.0758 2.0364 17.367 2.77092 17.3679C2.78806 17.3679 2.8039 17.364 2.82082 17.3629C2.83753 17.3642 2.85359 17.3679 2.87073 17.3679H12.9261L12.9283 17.3677C13.6493 17.348 14.3358 17.0562 14.8488 16.5511C15.3619 16.0461 15.6633 15.3658 15.692 14.6478C15.6929 14.634 15.6961 14.621 15.6961 14.6072V2.81142L15.6957 2.80818L15.6961 2.80493V2.80472C15.6957 2.48455 15.8231 2.17713 16.0502 1.95055C16.2772 1.72399 16.5855 1.59666 16.9069 1.59666C17.2285 1.59666 17.5366 1.724 17.7638 1.95055C17.991 2.17711 18.1184 2.48452 18.1179 2.80472V4.01252H17.2255C16.8497 4.01252 16.5448 4.31604 16.5448 4.69069C16.5448 5.06512 16.8497 5.36886 17.2255 5.36886H18.2271C18.5588 5.36822 18.8771 5.23678 19.112 5.00286C19.3465 4.76895 19.4787 4.45203 19.4791 4.12125V2.8047C19.4784 2.12526 19.2074 1.47387 18.7253 0.993327C18.2432 0.512967 17.5894 0.242545 16.9074 0.24166L16.907 0.241455ZM1.36128 14.6074H10.1518C10.152 15.102 10.2868 15.5873 10.5417 16.0117H2.8705C2.85335 16.0117 2.8373 16.0156 2.82059 16.0167C2.80388 16.0154 2.78783 16.0117 2.77068 16.0117C2.39855 16.0065 2.04289 15.8569 1.7797 15.5947C1.5165 15.3324 1.36634 14.9781 1.36113 14.6074L1.36128 14.6074ZM12.9237 16.0119L12.9239 16.0117C12.5515 16.0067 12.1957 15.8571 11.9322 15.5949C11.6688 15.3327 11.5184 14.9783 11.5132 14.6074V14.0256C11.5132 14.0074 11.5093 13.9904 11.5078 13.9726C11.5087 13.9579 11.5121 13.9441 11.5121 13.9292C11.5121 13.7493 11.4405 13.5768 11.3127 13.4497C11.1851 13.3223 11.012 13.251 10.8315 13.251H4.04845V3.10168C4.04845 3.0846 4.04455 3.06882 4.04346 3.05195C4.04476 3.03531 4.04845 3.01931 4.04845 3.00223C4.05366 2.63148 4.20403 2.27713 4.46724 2.01491C4.73044 1.7527 5.0861 1.60309 5.45822 1.59789H14.6387C14.4386 1.96886 14.334 2.38349 14.3343 2.80465L14.3347 2.80789L14.3343 2.81113V14.5887C14.334 14.5951 14.3323 14.601 14.3323 14.6075C14.3143 14.9739 14.16 15.3207 13.8996 15.5801C13.6392 15.8397 13.2914 15.9936 12.9236 16.0118L12.9237 16.0119Z" fill="#BFC3C7"/>
</svg>
