<svg width="42" height="42" viewBox="0 0 42 42" fill="none" xmlns="http://www.w3.org/2000/svg">
<rect width="42" height="42" rx="21" fill="#16233C"/>
<path d="M22.0894 18.5385L24.5422 20.9901L22.0894 18.5385ZM23.6667 16.3786L17.0343 23.011C16.6916 23.3532 16.4579 23.7892 16.3626 24.2641L15.75 27.3307L18.8166 26.7169C19.2914 26.6219 19.7269 26.3891 20.0697 26.0463L26.702 19.414C26.9013 19.2147 27.0594 18.9781 27.1673 18.7177C27.2752 18.4573 27.3307 18.1782 27.3307 17.8963C27.3307 17.6145 27.2752 17.3354 27.1673 17.075C27.0594 16.8146 26.9013 16.5779 26.702 16.3786C26.5027 16.1793 26.2661 16.0212 26.0057 15.9134C25.7453 15.8055 25.4662 15.75 25.1844 15.75C24.9025 15.75 24.6234 15.8055 24.363 15.9134C24.1026 16.0212 23.866 16.1793 23.6667 16.3786V16.3786Z" stroke="white" stroke-width="1.5" stroke-linecap="round" stroke-linejoin="round"/>
</svg>
