<svg width="18" height="18" viewBox="0 0 18 18" fill="none" xmlns="http://www.w3.org/2000/svg">
<path d="M9.75855 4.85259L13.1474 8.23985L9.75855 4.85259ZM11.9378 1.86854L2.77443 11.0319C2.30096 11.5047 1.97806 12.1071 1.84642 12.7631L1 17L5.23687 16.152C5.89288 16.0208 6.49449 15.6992 6.9681 15.2256L16.1315 6.06221C16.4068 5.78685 16.6253 5.45995 16.7743 5.10017C16.9233 4.7404 17 4.35479 17 3.96537C17 3.57596 16.9233 3.19035 16.7743 2.83057C16.6253 2.4708 16.4068 2.1439 16.1315 1.86854C15.8561 1.59318 15.5292 1.37475 15.1694 1.22573C14.8097 1.0767 14.424 1 14.0346 1C13.6452 1 13.2596 1.0767 12.8998 1.22573C12.54 1.37475 12.2132 1.59318 11.9378 1.86854V1.86854Z" stroke="white" stroke-width="1.5" stroke-linecap="round" stroke-linejoin="round"/>
</svg>
