<svg width="13" height="10" viewBox="0 0 13 10" fill="none" xmlns="http://www.w3.org/2000/svg">
<path d="M10.3493 1.00009C11.2605 1.00009 12 1.73956 12 2.65075V7.73479C12 8.64597 11.2605 9.38545 10.3493 9.38545L2.65066 9.38535C1.73947 9.38535 1 8.64588 1 7.73469V2.65066C1 1.73947 1.73947 1 2.65066 1L10.3493 1.00009ZM10.3493 1.76593H2.65066C2.16864 1.76593 1.77909 2.14883 1.77256 2.63087V7.73471C1.77256 8.21673 2.15546 8.60629 2.6375 8.61282H10.3626C10.8446 8.61282 11.2342 8.22991 11.2407 7.74787V2.64403C11.2407 2.16202 10.8578 1.77246 10.3758 1.76593H10.3492H10.3493Z" fill="white" stroke="white" stroke-width="0.3"/>
<path d="M7.39128 5.33137C6.86965 5.65488 6.18958 5.6615 5.66141 5.34455L5.64161 5.33137L3.4297 3.94479C3.25146 3.83251 3.19859 3.59485 3.31087 3.41663C3.42316 3.24493 3.64763 3.18552 3.82588 3.28454L3.83905 3.29117L6.05096 4.67775C6.32167 4.84945 6.69142 4.84945 6.96878 4.69092L6.98858 4.67775L9.20049 3.29117C9.37873 3.17889 9.61648 3.23176 9.72865 3.41663C9.84094 3.59487 9.78806 3.81934 9.61637 3.93826L9.60319 3.94489L7.39128 5.33137Z" fill="white" stroke="white" stroke-width="0.3"/>
</svg>
