<svg width="10" height="12" viewBox="0 0 10 12" fill="none" xmlns="http://www.w3.org/2000/svg">
<path d="M7.99853 2.1279V3.42268L5.40897 6.01211V9.24898L4.1142 9.8963L4.11431 6.01206L1.52476 3.4225V2.12784H7.99849L7.99853 2.1279ZM7.99849 0.833066H1.52476C1.18133 0.833066 0.852038 0.969442 0.609186 1.21227C0.366467 1.4551 0.229981 1.78442 0.229981 2.12784V3.42262V3.42251C0.229755 3.76605 0.366016 4.09557 0.608723 4.33863L2.8195 6.54773V9.89616C2.81917 10.3451 3.0515 10.7623 3.4333 10.9983C3.81522 11.2345 4.29208 11.256 4.69362 11.055L5.9884 10.4077C6.20346 10.3 6.38431 10.1346 6.51063 9.92994C6.63707 9.72526 6.70391 9.48943 6.70368 9.24887V6.54767L8.91446 4.33857C9.15718 4.09551 9.29343 3.76599 9.2932 3.42244V2.12778C9.2932 1.78436 9.15671 1.45506 8.914 1.21221C8.67117 0.969381 8.34185 0.833008 7.99843 0.833008L7.99849 0.833066Z" fill="#2A3746" stroke="white" stroke-width="0.2"/>
</svg>
