<svg width="21" height="20" viewBox="0 0 21 20" fill="none" xmlns="http://www.w3.org/2000/svg">
<path d="M1.13698 18.5698L1.13696 18.5698C0.473024 17.9085 0.1 17.0113 0.1 16.076V7.64325V7.64323C0.0997038 6.40495 0.751215 5.25695 1.81706 4.61903C1.81708 4.61902 1.81709 4.61901 1.81711 4.619L8.18772 0.810677L8.18778 0.810644C8.73843 0.480982 9.36881 0.306909 10.0112 0.306909C10.6536 0.306909 11.2841 0.48099 11.8347 0.810643L11.8347 0.810677L18.2053 4.619C19.2712 5.25692 19.9227 6.40493 19.9224 7.64323V16.076C19.9224 17.0113 19.5494 17.9085 18.8855 18.5698L18.8855 18.5698C18.2217 19.2313 17.321 19.6031 16.3819 19.6031H3.64056C2.70144 19.6031 1.80078 19.2313 1.13698 18.5698ZM1.72014 7.64163L1.72012 7.64163V7.64325V16.076C1.72012 16.5837 1.92258 17.0704 2.28265 17.4293L2.28268 17.4293C2.64289 17.788 3.13115 17.9896 3.6404 17.9896H16.3817C16.891 17.9896 17.3792 17.788 17.7395 17.4293L17.7395 17.4293C18.0995 17.0704 18.302 16.5837 18.302 16.076L18.302 7.64325L18.302 7.64163C18.2911 6.96921 17.9267 6.35183 17.3425 6.01562C17.3423 6.01548 17.342 6.01534 17.3418 6.01519L10.9726 2.2077L10.9489 2.19353H10.9484C10.6555 2.02387 10.3227 1.93456 9.9838 1.93456C9.63544 1.93456 9.29361 2.02886 8.99494 2.20774L8.99469 2.2079L2.67942 6.01572C2.09538 6.35196 1.73108 6.96927 1.72014 7.64163Z" fill="#16233C" stroke="#16233C" stroke-width="0.2"/>
<path d="M6.71871 12.7914L6.7969 12.8537C6.95676 12.6532 7.20271 12.5401 7.45974 12.5488L7.45974 12.549L7.46521 12.5489C7.63027 12.5455 7.79253 12.5923 7.93001 12.6832L7.93006 12.6832C8.0667 12.7735 8.17254 12.9031 8.23372 13.0545C8.40384 13.567 8.78307 13.9839 9.27802 14.2028C9.77395 14.4222 10.3398 14.4222 10.8358 14.2028C11.3307 13.9839 11.7101 13.567 11.8801 13.0545C11.9412 12.9031 12.0472 12.7735 12.1839 12.6832L12.1839 12.6832C12.3214 12.5923 12.4835 12.5455 12.6487 12.5489L12.6487 12.549L12.6542 12.5488C12.9112 12.5401 13.1571 12.6532 13.3168 12.8536C13.476 13.0535 13.5309 13.3164 13.465 13.5625C13.2258 14.2797 12.7616 14.9014 12.1407 15.336C11.5191 15.7711 10.7734 15.9955 10.014 15.9759L10.0115 16.0731L10.0114 15.9759H10.0114L10.0113 15.9813L10.0113 15.9759C9.2668 15.9766 8.54112 15.7435 7.93729 15.3097C7.33426 14.8764 6.88353 14.2651 6.64874 13.5625C6.58294 13.3164 6.63782 13.0535 6.79695 12.8536L6.71871 12.7914ZM6.71871 12.7914C6.53923 13.0168 6.47768 13.3137 6.55294 13.5913L10.7953 14.1114C10.3252 14.3194 9.78864 14.3194 9.31847 14.1114C8.84831 13.9034 8.48842 13.5071 8.32767 13.0201C8.25911 12.8486 8.13966 12.7018 7.98516 12.5998C7.83066 12.4976 7.64843 12.4451 7.46316 12.4489C7.1746 12.439 6.89835 12.5661 6.71871 12.7914Z" fill="#16233C" stroke="#16233C" stroke-width="0.2"/>
</svg>
