<svg width="17" height="19" viewBox="0 0 17 19" fill="none" xmlns="http://www.w3.org/2000/svg">
<path d="M16.7778 6.73307C16.4827 6.44061 16.0055 6.44192 15.712 6.73592L6.65208 15.8111C5.47667 16.9822 3.56763 16.9822 2.39003 15.8096C1.21332 14.6366 1.21332 12.7346 2.39018 11.5621L11.7182 2.2197C12.4521 1.48861 13.6452 1.48861 14.3811 2.22128C15.1169 2.95431 15.1169 4.14283 14.3809 4.87607L6.65349 12.5749C6.653 12.5754 6.65258 12.5759 6.65208 12.5764C6.35769 12.8681 5.88192 12.8677 5.58813 12.575C5.29385 12.2818 5.29385 11.8066 5.58813 11.5134L9.3181 7.79647C9.61238 7.5032 9.61235 7.02775 9.31799 6.73455C9.02364 6.44135 8.54642 6.44139 8.25214 6.73466L4.52221 10.4515C3.63931 11.3312 3.63931 12.7572 4.52228 13.6369C5.4052 14.5166 6.83657 14.5166 7.71953 13.6369C7.72055 13.6359 7.72136 13.6348 7.72235 13.6338L15.4468 5.93792C16.7714 4.61821 16.7714 2.47882 15.4468 1.15912C14.122 -0.159811 11.9748 -0.159811 10.651 1.15912L1.32291 10.5016C-0.44118 12.2592 -0.44118 15.1118 1.32418 16.8715C3.0907 18.6305 5.95392 18.6305 7.71939 16.8716L16.7807 7.79499C17.0742 7.50095 17.0729 7.02553 16.7778 6.73307Z" fill="#16233C"/>
</svg>
