<svg width="48" height="47" viewBox="0 0 48 47" fill="none" xmlns="http://www.w3.org/2000/svg">
<rect x="0.928711" y="0.5" width="46" height="46" rx="7.5" fill="#EEF4FF" stroke="#DEE6F0"/>
<path fill-rule="evenodd" clip-rule="evenodd" d="M18.9343 10.081C20.3739 10.0147 20.8329 10 24.5 10C28.1671 10 28.6261 10.016 30.0645 10.081C31.5028 10.146 32.4846 10.3755 33.3437 10.7081C34.2433 11.0481 35.0595 11.5795 35.7345 12.2668C36.4217 12.9405 36.9519 13.7555 37.2906 14.6563C37.6245 15.5154 37.8527 16.4972 37.919 17.9331C37.9853 19.3751 38 19.8341 38 23.5C38 27.1671 37.984 27.6261 37.919 29.0657C37.854 30.5016 37.6245 31.4834 37.2906 32.3425C36.9519 33.2434 36.4208 34.0597 35.7345 34.7345C35.0595 35.4217 34.2433 35.9519 33.3437 36.2906C32.4846 36.6245 31.5028 36.8527 30.0669 36.919C28.6261 36.9853 28.1671 37 24.5 37C20.8329 37 20.3739 36.984 18.9343 36.919C17.4984 36.854 16.5166 36.6245 15.6575 36.2906C14.7566 35.9519 13.9403 35.4208 13.2655 34.7345C12.5787 34.0603 12.0472 33.2444 11.7081 32.3437C11.3755 31.4846 11.1473 30.5028 11.081 29.0669C11.0147 27.6249 11 27.1659 11 23.5C11 19.8329 11.016 19.3739 11.081 17.9355C11.146 16.4972 11.3755 15.5154 11.7081 14.6563C12.0478 13.7556 12.5796 12.9397 13.2668 12.2655C13.9406 11.5789 14.756 11.0474 15.6563 10.7081C16.5154 10.3755 17.4984 10.1473 18.9343 10.081ZM29.9552 12.511C28.5316 12.446 28.1045 12.4325 24.5 12.4325C20.8955 12.4325 20.4684 12.446 19.0448 12.511C17.7279 12.5711 17.0136 12.7908 16.5375 12.9761C15.9079 13.2216 15.4575 13.5125 14.985 13.985C14.5371 14.4207 14.1924 14.9512 13.9761 15.5375C13.7908 16.0136 13.5711 16.7279 13.511 18.0448C13.446 19.4684 13.4325 19.8955 13.4325 23.5C13.4325 27.1045 13.446 27.5316 13.511 28.9552C13.5711 30.2721 13.7908 30.9864 13.9761 31.4625C14.1921 32.048 14.537 32.5794 14.985 33.015C15.4206 33.463 15.952 33.8079 16.5375 34.0239C17.0136 34.2092 17.7279 34.4289 19.0448 34.489C20.4684 34.554 20.8943 34.5675 24.5 34.5675C28.1057 34.5675 28.5316 34.554 29.9552 34.489C31.2721 34.4289 31.9864 34.2092 32.4625 34.0239C33.0921 33.7784 33.5425 33.4875 34.015 33.015C34.463 32.5794 34.8079 32.048 35.0239 31.4625C35.2092 30.9864 35.4289 30.2721 35.489 28.9552C35.554 27.5316 35.5675 27.1045 35.5675 23.5C35.5675 19.8955 35.554 19.4684 35.489 18.0448C35.4289 16.7279 35.2092 16.0136 35.0239 15.5375C34.7784 14.9079 34.4875 14.4575 34.015 13.985C33.5793 13.5371 33.0488 13.1924 32.4625 12.9761C31.9864 12.7908 31.2721 12.5711 29.9552 12.511ZM22.7757 27.6617C23.7387 28.0625 24.811 28.1167 25.8094 27.8147C26.8079 27.5128 27.6705 26.8737 28.2501 26.0064C28.8296 25.1391 29.0901 24.0975 28.987 23.0595C28.8839 22.0216 28.4236 21.0516 27.6848 20.3152C27.2138 19.8445 26.6443 19.4841 26.0173 19.26C25.3903 19.0358 24.7214 18.9534 24.0588 19.0188C23.3961 19.0841 22.7562 19.2956 22.1851 19.6379C21.614 19.9803 21.1259 20.445 20.756 20.9986C20.386 21.5523 20.1434 22.181 20.0456 22.8397C19.9479 23.4983 19.9973 24.1705 20.1905 24.8077C20.3836 25.4449 20.7157 26.0314 21.1627 26.5249C21.6097 27.0184 22.1606 27.4066 22.7757 27.6617ZM19.5934 18.5934C20.2377 17.949 21.0027 17.4379 21.8445 17.0892C22.6864 16.7405 23.5888 16.561 24.5 16.561C25.4112 16.561 26.3136 16.7405 27.1555 17.0892C27.9973 17.4379 28.7623 17.949 29.4066 18.5934C30.051 19.2377 30.5621 20.0027 30.9108 20.8445C31.2595 21.6864 31.439 22.5888 31.439 23.5C31.439 24.4112 31.2595 25.3136 30.9108 26.1555C30.5621 26.9973 30.051 27.7623 29.4066 28.4066C28.1053 29.708 26.3403 30.439 24.5 30.439C22.6597 30.439 20.8947 29.708 19.5934 28.4066C18.292 27.1053 17.561 25.3403 17.561 23.5C17.561 21.6597 18.292 19.8947 19.5934 18.5934ZM32.978 17.5944C33.1377 17.4437 33.2655 17.2626 33.3539 17.0617C33.4423 16.8608 33.4895 16.6442 33.4927 16.4247C33.4959 16.2052 33.4551 15.9873 33.3725 15.7839C33.29 15.5805 33.1675 15.3957 33.0123 15.2405C32.8571 15.0853 32.6723 14.9628 32.4689 14.8803C32.2655 14.7978 32.0476 14.7569 31.8281 14.7601C31.6086 14.7633 31.392 14.8105 31.1911 14.8989C30.9902 14.9873 30.8091 15.1151 30.6585 15.2748C30.3655 15.5854 30.2051 15.9978 30.2114 16.4247C30.2176 16.8515 30.3899 17.2592 30.6918 17.561C30.9936 17.8629 31.4013 18.0352 31.8281 18.0415C32.255 18.0477 32.6675 17.8873 32.978 17.5944Z" fill="#2A3746"/>
</svg>
