<svg width="11" height="11" viewBox="0 0 11 11" fill="none" xmlns="http://www.w3.org/2000/svg">
<path d="M8.01267 11C8.15873 11.0008 8.30349 10.9726 8.43851 10.9169C8.57354 10.8612 8.69611 10.7791 8.79908 10.6755L10.2894 9.18517C10.3918 9.08214 10.4493 8.94275 10.4493 8.79747C10.4493 8.65218 10.3918 8.5128 10.2894 8.40976L8.08966 6.20999C7.98662 6.10756 7.84724 6.05007 7.70195 6.05007C7.55666 6.05007 7.41728 6.10756 7.31424 6.20999L6.43433 7.0844C5.82514 6.92197 5.26093 6.62294 4.78451 6.20999C4.37267 5.73281 4.07378 5.16887 3.9101 4.56017L4.78451 3.68026C4.88694 3.57722 4.94443 3.43784 4.94443 3.29255C4.94443 3.14727 4.88694 3.00788 4.78451 2.90484L2.58474 0.705077C2.4817 0.60265 2.34232 0.545158 2.19703 0.545158C2.05175 0.545158 1.91236 0.60265 1.80933 0.705077L0.324484 2.20092C0.220892 2.30389 0.138848 2.42646 0.08314 2.56149C0.0274316 2.69651 -0.000825327 2.84127 1.83497e-05 2.98733C0.0499106 5.10037 0.894264 7.117 2.36477 8.63523C3.883 10.1057 5.89963 10.9501 8.01267 11V11ZM2.19978 1.87645L3.62413 3.3008L2.91471 4.01023C2.84752 4.07316 2.7972 4.15197 2.76838 4.2394C2.73955 4.32684 2.73314 4.42011 2.74973 4.51067C2.95528 5.42928 3.39047 6.28074 4.01459 6.98541C4.71871 7.61033 5.57039 8.04564 6.48933 8.25027C6.57852 8.26892 6.67094 8.26511 6.75829 8.23919C6.84564 8.21328 6.92519 8.16606 6.98977 8.10179L7.6992 7.37587L9.12355 8.80022L8.02366 9.9001C6.19991 9.85314 4.45977 9.1253 3.14568 7.85982C1.87692 6.54519 1.14698 4.80275 1.0999 2.97634L2.19978 1.87645ZM9.89896 4.95063H10.9988C11.0131 4.29674 10.8948 3.64675 10.6511 3.0398C10.4075 2.43286 10.0434 1.88154 9.58094 1.41906C9.11846 0.95659 8.56714 0.59254 7.9602 0.348854C7.35325 0.105168 6.70326 -0.0131088 6.04937 0.00115192V1.10103C6.55967 1.08338 7.06814 1.17088 7.54318 1.3581C8.01822 1.54531 8.44967 1.82823 8.81072 2.18928C9.17177 2.55033 9.45469 2.98178 9.6419 3.45682C9.82912 3.93186 9.91662 4.44033 9.89896 4.95063Z" fill="#2A3746"/>
<path d="M6 3.2C7.26 3.2 7.8 3.74 7.8 5H9C9 3.068 7.932 2 6 2V3.2Z" fill="#2A3746"/>
</svg>
