<svg width="23" height="27" viewBox="0 0 23 27" fill="none" xmlns="http://www.w3.org/2000/svg">
<g opacity="0.4">
<path d="M11.6 16.075C14.0715 16.075 16.075 14.0715 16.075 11.6C16.075 9.12853 14.0715 7.125 11.6 7.125C9.12853 7.125 7.125 9.12853 7.125 11.6C7.125 14.0715 9.12853 16.075 11.6 16.075Z" stroke="#80B9FF" stroke-width="2.5" stroke-linecap="round" stroke-linejoin="round"/>
<path d="M3.63711 17.2192C3.64713 17.2317 3.65739 17.2441 3.66789 17.2562L10.6554 25.3187C10.8928 25.5926 11.2375 25.75 11.6 25.75C11.9625 25.75 12.3072 25.5926 12.5446 25.3187L19.5321 17.2562C19.5426 17.2441 19.5529 17.2317 19.5629 17.2192C20.2253 16.3928 20.7112 15.5629 21.0229 14.6225C21.3328 13.6877 21.45 12.7052 21.45 11.6C21.45 8.98762 20.4122 6.48223 18.565 4.635C16.7178 2.78777 14.2124 1.75 11.6 1.75C8.98762 1.75 6.48223 2.78777 4.635 4.635C2.78777 6.48223 1.75 8.98762 1.75 11.6C1.75 12.7052 1.86724 13.6877 2.1771 14.6225C2.48881 15.5629 2.97475 16.3928 3.63711 17.2192Z" stroke="#80B9FF" stroke-width="2.5" stroke-linecap="round" stroke-linejoin="round"/>
</g>
</svg>
