<svg width="17" height="17" viewBox="0 0 17 17" fill="none" xmlns="http://www.w3.org/2000/svg">
<path d="M12.0065 3.12455L13.8753 4.99249L12.0065 3.12455ZM13.2083 1.47896L8.15504 6.53219C7.89394 6.79293 7.71587 7.12512 7.64328 7.4869L7.17651 9.82336L9.51298 9.35572C9.87475 9.28337 10.2065 9.10601 10.4677 8.84484L15.5209 3.79161C15.6728 3.63976 15.7932 3.45949 15.8754 3.26108C15.9576 3.06268 15.9999 2.85003 15.9999 2.63529C15.9999 2.42054 15.9576 2.20789 15.8754 2.00949C15.7932 1.81109 15.6728 1.63081 15.5209 1.47896C15.3691 1.32711 15.1888 1.20666 14.9904 1.12448C14.792 1.0423 14.5793 1 14.3646 1C14.1498 1 13.9372 1.0423 13.7388 1.12448C13.5404 1.20666 13.3601 1.32711 13.2083 1.47896V1.47896Z" stroke="white" stroke-width="1.5" stroke-linecap="round" stroke-linejoin="round"/>
<path d="M14.2353 11.5881V14.2351C14.2353 14.7032 14.0494 15.152 13.7184 15.483C13.3875 15.8139 12.9386 15.9998 12.4706 15.9998H2.7647C2.29668 15.9998 1.84782 15.8139 1.51687 15.483C1.18592 15.152 1 14.7032 1 14.2351V4.52926C1 4.06123 1.18592 3.61237 1.51687 3.28143C1.84782 2.95048 2.29668 2.76456 2.7647 2.76456H5.41176" stroke="white" stroke-width="1.5" stroke-linecap="round" stroke-linejoin="round"/>
</svg>
