<svg width="29" height="26" viewBox="0 0 29 26" fill="none" xmlns="http://www.w3.org/2000/svg">
<path d="M21.9827 6.1324C21.9825 6.72073 22.4594 7.19778 23.0477 7.19778H24.2119C25.4429 7.19778 26.4407 8.19564 26.4407 9.42657V12.5719C26.4407 14.0478 25.2443 15.2442 23.7684 15.2442H21.8652C21.4404 15.2442 21.096 14.8998 21.096 14.4751V14.4751C21.096 14.0503 20.7517 13.7059 20.3269 13.7059H20.0271C19.4368 13.7059 18.9583 14.1845 18.9583 14.7748V17.8439C18.9583 18.4342 19.4368 18.9128 20.0271 18.9128H20.3267C20.7516 18.9128 21.096 18.5683 21.096 18.1434V18.1434C21.096 17.7185 21.4405 17.3741 21.8654 17.3741H23.2339C24.4146 17.3741 25.3717 18.3312 25.3717 19.5119V20.5276C25.3717 22.1844 24.0286 23.5276 22.3717 23.5276H6.62766C4.97081 23.5276 3.62766 22.1845 3.62766 20.5276V18.443C3.62766 17.8526 4.10819 17.3741 4.69852 17.3741V17.3741C5.28666 17.3741 5.76542 16.8973 5.76542 16.3091V16.3091C5.76542 15.721 5.28863 15.2442 4.70049 15.2442H4.16207C3.27656 15.2442 2.55872 14.5264 2.55872 13.6409V10.1978C2.55872 8.54092 3.90186 7.19778 5.55872 7.19778H9.16291C10.3393 7.19778 11.2929 6.24416 11.2929 5.06782V5.06782C11.2929 3.89147 12.2465 2.93785 13.4228 2.93785H16.6416C17.2297 2.93785 17.7065 3.41464 17.7065 4.00279V4.00279C17.7065 4.59093 17.2297 5.06772 16.6416 5.06772H14.4959C13.9077 5.06772 13.4308 5.54456 13.4308 6.13278V6.13278C13.4308 6.721 13.9077 7.19784 14.4959 7.19784H16.8445C18.5013 7.19784 19.8445 5.85469 19.8445 4.19784V3.80786C19.8445 2.15101 18.5013 0.807861 16.8445 0.807861H11.285C10.1087 0.807861 9.15505 1.76148 9.15505 2.93782V2.93782C9.15505 4.11417 8.20143 5.06778 7.02508 5.06778H3.4209C1.76404 5.06778 0.420898 6.41093 0.420898 8.06778V16.8397C0.420898 17.1349 0.660204 17.3742 0.955402 17.3742V17.3742C1.2506 17.3742 1.4899 17.6135 1.4899 17.9087V22.6577C1.4899 24.3146 2.83305 25.6577 4.4899 25.6577H24.5104C26.1672 25.6577 27.5104 24.3146 27.5104 22.6577V17.9087C27.5104 17.6135 27.7497 17.3742 28.0449 17.3742V17.3742C28.3401 17.3742 28.5794 17.1349 28.5794 16.8397V8.06778C28.5794 6.41093 27.2362 5.06778 25.5794 5.06778H23.0477C22.4597 5.06778 21.9829 5.54437 21.9827 6.1324V6.1324Z" fill="#17243D"/>
<path d="M8.9722 13.7056C8.38187 13.7056 7.90332 14.1841 7.90332 14.7744V17.8435C7.90332 18.4339 8.38187 18.9124 8.9722 18.9124H9.27172C9.69662 18.9124 10.0411 18.568 10.0411 18.1431V18.1431C10.0411 17.7181 10.3855 17.3737 10.8104 17.3737H15.7557C16.3438 17.3737 16.8206 16.8969 16.8206 16.3088V16.3088C16.8206 15.7206 16.3438 15.2438 15.7557 15.2438H10.8102C10.3854 15.2438 10.0411 14.8995 10.0411 14.4747V14.4747C10.0411 14.0499 9.69672 13.7056 9.27194 13.7056H8.9722Z" fill="#17243D"/>
</svg>
