<svg width="73" height="73" viewBox="0 0 73 73" fill="none" xmlns="http://www.w3.org/2000/svg">
<rect width="73" height="73" rx="8" fill="#ED5761"/>
<path opacity="0.2" d="M17.0453 19.1538L17.3356 40.9919C17.3646 43.1757 17.9243 44.8498 19.0145 46.014C20.1047 47.1783 21.6898 47.7466 23.7696 47.719C25.8494 47.6913 27.4361 47.0809 28.5297 45.8875C29.6232 44.6942 30.1555 43.0057 30.1265 40.8219L29.8362 18.9838L38.7274 18.8656L39.017 40.6517C39.0603 43.9101 38.4037 46.675 37.0471 48.9466C35.6905 51.2182 33.8412 52.9416 31.4993 54.1168C29.192 55.2916 26.5999 55.8981 23.7228 55.9363C20.8457 55.9746 18.2559 55.4543 15.9534 54.3755C13.685 53.2615 11.8773 51.5867 10.5301 49.3511C9.18247 47.0808 8.487 44.3165 8.44369 41.0581L8.15408 19.272L17.0453 19.1538ZM55.3352 55.1521L47.7513 44.0719L41.3485 55.338L31.2614 55.4721L42.7136 36.7542L30.5162 18.9748L40.8632 18.8372L48.3411 29.7628L54.642 18.654L64.7291 18.52L53.3788 37.0805L65.6823 55.0145L55.3352 55.1521Z" fill="white"/>
<path d="M15.1567 22.152V32.232C15.1567 33.24 15.4047 34.016 15.9007 34.56C16.3967 35.104 17.1247 35.376 18.0847 35.376C19.0447 35.376 19.7807 35.104 20.2927 34.56C20.8047 34.016 21.0607 33.24 21.0607 32.232V22.152H25.1647V32.208C25.1647 33.712 24.8447 34.984 24.2047 36.024C23.5647 37.064 22.7007 37.848 21.6127 38.376C20.5407 38.904 19.3407 39.168 18.0127 39.168C16.6847 39.168 15.4927 38.912 14.4367 38.4C13.3967 37.872 12.5727 37.088 11.9647 36.048C11.3567 34.992 11.0527 33.712 11.0527 32.208V22.152H15.1567ZM38.3666 39L34.9346 33.84L31.9106 39H27.2546L32.6546 30.432L27.1346 22.152H31.9106L35.2946 27.24L38.2706 22.152H42.9266L37.5746 30.648L43.1426 39H38.3666Z" fill="white"/>
<path d="M23.308 49.92C23.308 49.2893 23.4253 48.7357 23.66 48.259C23.902 47.7823 24.2283 47.4157 24.639 47.159C25.0497 46.9023 25.508 46.774 26.014 46.774C26.4173 46.774 26.784 46.8583 27.114 47.027C27.4513 47.1957 27.7153 47.423 27.906 47.709V44.86H29.787V53H27.906V52.12C27.73 52.4133 27.477 52.648 27.147 52.824C26.8243 53 26.4467 53.088 26.014 53.088C25.508 53.088 25.0497 52.9597 24.639 52.703C24.2283 52.439 23.902 52.0687 23.66 51.592C23.4253 51.108 23.308 50.5507 23.308 49.92ZM27.906 49.931C27.906 49.4617 27.774 49.0913 27.51 48.82C27.2533 48.5487 26.938 48.413 26.564 48.413C26.19 48.413 25.871 48.5487 25.607 48.82C25.3503 49.084 25.222 49.4507 25.222 49.92C25.222 50.3893 25.3503 50.7633 25.607 51.042C25.871 51.3133 26.19 51.449 26.564 51.449C26.938 51.449 27.2533 51.3133 27.51 51.042C27.774 50.7707 27.906 50.4003 27.906 49.931ZM33.9418 53.088C33.3405 53.088 32.7978 52.9597 32.3138 52.703C31.8372 52.4463 31.4595 52.0797 31.1808 51.603C30.9095 51.1263 30.7738 50.569 30.7738 49.931C30.7738 49.3003 30.9132 48.7467 31.1918 48.27C31.4705 47.786 31.8518 47.4157 32.3358 47.159C32.8198 46.9023 33.3625 46.774 33.9638 46.774C34.5652 46.774 35.1078 46.9023 35.5918 47.159C36.0758 47.4157 36.4572 47.786 36.7358 48.27C37.0145 48.7467 37.1538 49.3003 37.1538 49.931C37.1538 50.5617 37.0108 51.119 36.7248 51.603C36.4462 52.0797 36.0612 52.4463 35.5698 52.703C35.0858 52.9597 34.5432 53.088 33.9418 53.088ZM33.9418 51.46C34.3012 51.46 34.6055 51.328 34.8548 51.064C35.1115 50.8 35.2398 50.4223 35.2398 49.931C35.2398 49.4397 35.1152 49.062 34.8658 48.798C34.6238 48.534 34.3232 48.402 33.9638 48.402C33.5972 48.402 33.2928 48.534 33.0508 48.798C32.8088 49.0547 32.6878 49.4323 32.6878 49.931C32.6878 50.4223 32.8052 50.8 33.0398 51.064C33.2818 51.328 33.5825 51.46 33.9418 51.46ZM41.5727 51.405V53H40.6157C39.9337 53 39.4021 52.835 39.0207 52.505C38.6394 52.1677 38.4487 51.6213 38.4487 50.866V48.424H37.7007V46.862H38.4487V45.366H40.3297V46.862H41.5617V48.424H40.3297V50.888C40.3297 51.0713 40.3737 51.2033 40.4617 51.284C40.5497 51.3647 40.6964 51.405 40.9017 51.405H41.5727ZM44.6325 49.128C44.6325 48.3653 44.7975 47.687 45.1275 47.093C45.4575 46.4917 45.9159 46.026 46.5025 45.696C47.0965 45.3587 47.7675 45.19 48.5155 45.19C49.4322 45.19 50.2169 45.432 50.8695 45.916C51.5222 46.4 51.9585 47.06 52.1785 47.896H50.1105C49.9565 47.5733 49.7365 47.3277 49.4505 47.159C49.1719 46.9903 48.8529 46.906 48.4935 46.906C47.9142 46.906 47.4449 47.1077 47.0855 47.511C46.7262 47.9143 46.5465 48.4533 46.5465 49.128C46.5465 49.8027 46.7262 50.3417 47.0855 50.745C47.4449 51.1483 47.9142 51.35 48.4935 51.35C48.8529 51.35 49.1719 51.2657 49.4505 51.097C49.7365 50.9283 49.9565 50.6827 50.1105 50.36H52.1785C51.9585 51.196 51.5222 51.856 50.8695 52.34C50.2169 52.8167 49.4322 53.055 48.5155 53.055C47.7675 53.055 47.0965 52.89 46.5025 52.56C45.9159 52.2227 45.4575 51.757 45.1275 51.163C44.7975 50.569 44.6325 49.8907 44.6325 49.128ZM56.1244 53.088C55.5231 53.088 54.9804 52.9597 54.4964 52.703C54.0198 52.4463 53.6421 52.0797 53.3634 51.603C53.0921 51.1263 52.9564 50.569 52.9564 49.931C52.9564 49.3003 53.0958 48.7467 53.3744 48.27C53.6531 47.786 54.0344 47.4157 54.5184 47.159C55.0024 46.9023 55.5451 46.774 56.1464 46.774C56.7478 46.774 57.2904 46.9023 57.7744 47.159C58.2584 47.4157 58.6398 47.786 58.9184 48.27C59.1971 48.7467 59.3364 49.3003 59.3364 49.931C59.3364 50.5617 59.1934 51.119 58.9074 51.603C58.6288 52.0797 58.2438 52.4463 57.7524 52.703C57.2684 52.9597 56.7258 53.088 56.1244 53.088ZM56.1244 51.46C56.4838 51.46 56.7881 51.328 57.0374 51.064C57.2941 50.8 57.4224 50.4223 57.4224 49.931C57.4224 49.4397 57.2978 49.062 57.0484 48.798C56.8064 48.534 56.5058 48.402 56.1464 48.402C55.7798 48.402 55.4754 48.534 55.2334 48.798C54.9914 49.0547 54.8704 49.4323 54.8704 49.931C54.8704 50.4223 54.9878 50.8 55.2224 51.064C55.4644 51.328 55.7651 51.46 56.1244 51.46ZM61.2143 53.088C60.8843 53.088 60.613 52.9927 60.4003 52.802C60.195 52.604 60.0923 52.362 60.0923 52.076C60.0923 51.7827 60.195 51.537 60.4003 51.339C60.613 51.141 60.8843 51.042 61.2143 51.042C61.537 51.042 61.801 51.141 62.0063 51.339C62.219 51.537 62.3253 51.7827 62.3253 52.076C62.3253 52.362 62.219 52.604 62.0063 52.802C61.801 52.9927 61.537 53.088 61.2143 53.088Z" fill="white"/>
</svg>
