<svg width="11" height="13" viewBox="0 0 11 13" fill="none" xmlns="http://www.w3.org/2000/svg">
<path d="M5.51184 7.6344C6.64614 7.6344 7.56568 6.71487 7.56568 5.58057C7.56568 4.44627 6.64614 3.52673 5.51184 3.52673C4.37754 3.52673 3.45801 4.44627 3.45801 5.58057C3.45801 6.71487 4.37754 7.6344 5.51184 7.6344Z" stroke="#2A3746" stroke-linecap="round" stroke-linejoin="round"/>
<path d="M1.75492 8.22402C1.75893 8.22902 1.76304 8.23394 1.76724 8.23879L5.13388 12.1234C5.22885 12.233 5.36671 12.2959 5.51172 12.2959C5.65673 12.2959 5.7946 12.233 5.88957 12.1234L9.25621 8.23879C9.26041 8.23394 9.26451 8.22902 9.26852 8.22402C9.58175 7.8332 9.8091 7.44388 9.95469 7.00465C10.0995 6.56765 10.1553 6.10585 10.1553 5.58057C10.1553 4.34902 9.66605 3.16791 8.79521 2.29708C7.92438 1.42624 6.74327 0.937012 5.51172 0.937012C4.28017 0.937012 3.09907 1.42624 2.22823 2.29708C1.35739 3.16791 0.868164 4.34902 0.868164 5.58057C0.868164 6.10585 0.923899 6.56765 1.06875 7.00465C1.21435 7.44388 1.4417 7.8332 1.75492 8.22402Z" stroke="#2A3746" stroke-linecap="round" stroke-linejoin="round"/>
</svg>
