<svg width="7" height="9" viewBox="0 0 7 9" fill="none" xmlns="http://www.w3.org/2000/svg">
<path d="M4.09357 8.47401C5.09065 7.59974 6.86456 5.81358 6.86456 4.17446C6.86456 3.26753 6.50295 2.39775 5.85927 1.75645C5.21559 1.11516 4.34258 0.754883 3.43228 0.754883C2.52198 0.754883 1.64897 1.11516 1.00529 1.75645C0.361614 2.39775 1.35645e-08 3.26753 0 4.17446C0 5.81358 1.77335 7.59974 2.771 8.47401C2.95297 8.63584 3.18836 8.72528 3.43228 8.72528C3.6762 8.72528 3.91159 8.63584 4.09357 8.47401V8.47401ZM2.28819 4.17446C2.28819 3.87215 2.40873 3.58223 2.62329 3.36846C2.83784 3.15469 3.12885 3.0346 3.43228 3.0346C3.73571 3.0346 4.02672 3.15469 4.24128 3.36846C4.45584 3.58223 4.57638 3.87215 4.57638 4.17446C4.57638 4.47677 4.45584 4.7667 4.24128 4.98047C4.02672 5.19423 3.73571 5.31432 3.43228 5.31432C3.12885 5.31432 2.83784 5.19423 2.62329 4.98047C2.40873 4.7667 2.28819 4.47677 2.28819 4.17446Z" fill="#16233C"/>
</svg>
