<svg width="20" height="21" viewBox="0 0 20 21" fill="none" xmlns="http://www.w3.org/2000/svg">
<path d="M19.4857 6.38294C19.0875 5.57953 18.5022 4.92606 17.7988 4.4989L11.9892 0.794105C10.7471 0.0111772 9.25312 0.0111772 8.01095 0.794105L2.21036 4.4989C1.54045 4.89005 0.978076 5.49474 0.5871 6.24359C0.1963 6.99222 -0.00703126 7.85491 0.000185645 8.73294V15.4651C0.000185645 16.7031 0.419353 17.8903 1.16536 18.7659C1.91154 19.6412 2.92344 20.1331 3.97846 20.1331H16.0307C17.0841 20.1304 18.0937 19.6373 18.8378 18.7622C19.582 17.8871 20 16.7014 20 15.4651V8.74353C20.0014 7.91842 19.8245 7.10611 19.4857 6.38294ZM11.8087 12.0248C11.2793 12.4573 10.6497 12.6893 10.0045 12.6893C9.35925 12.6893 8.72971 12.4573 8.20026 12.0248L1.76819 6.85916C2.03759 6.42563 2.38591 6.06756 2.78767 5.8114L8.58826 2.10661C9.45194 1.57195 10.4848 1.57195 11.3487 2.10661L17.2214 5.8114C17.6343 6.0661 17.9923 6.42809 18.2678 6.86991L11.8087 12.0248ZM16.0307 18.6405H3.97846C3.26083 18.6405 2.57243 18.306 2.06481 17.7104C1.55737 17.115 1.27212 16.3072 1.27212 15.465V8.74342C1.26331 8.59539 1.26331 8.44695 1.27212 8.29893L7.46062 13.2634L7.46079 13.2632C8.20292 13.8458 9.07562 14.1567 9.96858 14.1567C10.8615 14.1567 11.7344 13.8458 12.4765 13.2632L18.665 8.28819C18.6753 8.44325 18.6753 8.59892 18.665 8.75398V15.4649C18.6652 16.2928 18.39 17.0879 17.8981 17.681C17.406 18.2741 16.7361 18.6184 16.0309 18.6405L16.0307 18.6405Z" fill="#16233C"/>
</svg>
