<svg width="19" height="20" viewBox="0 0 19 20" fill="none" xmlns="http://www.w3.org/2000/svg">
<path d="M5.93998 16.396H7.68714C7.68714 17.261 8.39106 17.9625 9.25953 17.9625C10.128 17.9625 10.8319 17.261 10.8319 16.396H12.5791C12.5791 18.2224 11.093 19.7032 9.25953 19.7032C7.42607 19.7032 5.93998 18.2224 5.93998 16.396ZM18.5196 13.9583V14.3077C18.5196 15.1752 17.8156 15.8736 16.9467 15.8736H1.57288C0.704169 15.8736 0 15.173 0 14.3077V13.9583C0 12.6962 0.900413 11.6435 2.09647 11.4006V7.34392C2.09647 3.40135 5.3032 0.207031 9.25984 0.207031C13.2165 0.207031 16.4232 3.40191 16.4232 7.34392V11.4004C17.6207 11.6427 18.5197 12.695 18.5197 13.9583H18.5196ZM16.7724 13.9583C16.7724 13.4772 16.3822 13.0884 15.8956 13.0884C15.2214 13.0884 14.6759 12.5408 14.6759 11.8725V7.34392C14.6759 4.36353 12.2514 1.94792 9.25965 1.94792C6.26789 1.94792 3.84339 4.36278 3.84339 7.34392V11.8725C3.84339 12.5437 3.29496 13.0884 2.62368 13.0884C2.13911 13.0884 1.74691 13.4787 1.74691 13.9583V14.1329H16.7725L16.7724 13.9583Z" fill="#16233C"/>
</svg>
