<svg width="19" height="20" viewBox="0 0 19 20" fill="none" xmlns="http://www.w3.org/2000/svg">
<path d="M1.64691 14.2328V14.1328V13.9582C1.64691 13.4227 2.08455 12.9883 2.62368 12.9883C3.24013 12.9883 3.74339 12.488 3.74339 11.8724V7.3438C3.74339 4.30707 6.21302 1.8478 9.25965 1.8478C12.3063 1.8478 14.7759 4.30782 14.7759 7.3438V11.8724C14.7759 12.4854 15.2766 12.9883 15.8956 12.9883C16.4367 12.9883 16.8724 13.4212 16.8724 13.9581L1.64691 14.2328ZM1.64691 14.2328H1.74691H16.7725H16.8726L16.8725 14.1327L16.8724 13.9582L1.64691 14.2328ZM16.4034 11.4983C17.5474 11.7298 18.4076 12.7296 18.4196 13.9328V13.9582V14.3076C18.4196 15.1193 17.7609 15.7735 16.9467 15.7735H1.57288C0.75896 15.7735 0.1 15.1172 0.1 14.3076V13.9582C0.1 12.745 0.965632 11.7322 2.11637 11.4985L2.19647 11.4823V11.4005V7.3438C2.19647 3.45681 5.35808 0.306909 9.25984 0.306909C13.1616 0.306909 16.3232 3.45737 16.3232 7.3438V11.4003V11.4821L16.4034 11.4983ZM12.4775 16.4958C12.4245 18.2205 11.0045 19.6031 9.25953 19.6031C7.51455 19.6031 6.09455 18.2205 6.04152 16.4958H7.59011C7.64201 17.3698 8.36985 18.0624 9.25953 18.0624C10.1492 18.0624 10.877 17.3698 10.929 16.4958H12.4775Z" fill="#16233C" stroke="#16233C" stroke-width="0.2"/>
</svg>
