<svg width="96" height="24" viewBox="0 0 96 24" fill="none" xmlns="http://www.w3.org/2000/svg">
<path fill-rule="evenodd" clip-rule="evenodd" d="M35.5082 4.95386H30.1615C29.7956 4.95386 29.4844 5.21978 29.4274 5.58085L27.2649 19.2914C27.2219 19.5621 27.4314 19.8059 27.7058 19.8059H30.2584C30.6243 19.8059 30.9355 19.54 30.9925 19.1782L31.5758 15.4803C31.632 15.1181 31.944 14.8526 32.3091 14.8526H34.0017C37.5238 14.8526 39.5563 13.1482 40.0875 9.7708C40.3266 8.29323 40.0976 7.13223 39.4055 6.31891C38.6457 5.42636 37.2977 4.95386 35.5082 4.95386ZM36.1251 9.96147C35.8327 11.8801 34.3668 11.8801 32.9494 11.8801H32.1426L32.7086 8.29685C32.7422 8.08049 32.9298 7.92094 33.1488 7.92094H33.5186C34.4841 7.92094 35.395 7.92094 35.8657 8.47123C36.1461 8.79974 36.2322 9.28744 36.1251 9.96147ZM51.4909 9.89996H48.9305C48.7123 9.89996 48.5238 10.0595 48.4902 10.2762L48.3769 10.9922L48.1978 10.7328C47.6436 9.92818 46.4077 9.65937 45.1739 9.65937C42.3443 9.65937 39.9279 11.8023 39.4572 14.8084C39.2126 16.3077 39.5603 17.7415 40.4109 18.7415C41.1913 19.6608 42.3078 20.044 43.636 20.044C45.9156 20.044 47.1801 18.578 47.1801 18.578L47.0658 19.2896C47.0227 19.5617 47.2322 19.8056 47.505 19.8056H49.8114C50.1783 19.8056 50.4876 19.5396 50.5455 19.1778L51.9294 10.4144C51.9732 10.1449 51.7644 9.89996 51.4909 9.89996ZM47.9218 14.8833C47.6747 16.3461 46.5137 17.328 45.0332 17.328C44.2897 17.328 43.6953 17.0896 43.314 16.6377C42.9355 16.1891 42.7915 15.5501 42.912 14.8388C43.1428 13.3884 44.3234 12.3746 45.7814 12.3746C46.5082 12.3746 47.0994 12.616 47.4887 13.0718C47.8787 13.5324 48.0336 14.1749 47.9218 14.8833ZM62.5542 9.8996H65.1273C65.4877 9.8996 65.6979 10.3037 65.4931 10.5993L56.9356 22.9517C56.797 23.1518 56.5687 23.2708 56.3249 23.2708H53.755C53.3932 23.2708 53.1819 22.8635 53.3914 22.5671L56.056 18.8059L53.2221 10.489C53.124 10.1999 53.3375 9.8996 53.645 9.8996H56.1733C56.5018 9.8996 56.7916 10.1152 56.8864 10.4296L58.3903 15.4528L61.9392 10.2256C62.0781 10.0215 62.3089 9.8996 62.5542 9.8996Z" fill="#253B80"/>
<path fill-rule="evenodd" clip-rule="evenodd" d="M90.4509 19.2912L92.6452 5.32987C92.6788 5.11316 92.8666 4.9536 93.0848 4.95288H95.5551C95.8279 4.95288 96.0374 5.19745 95.9943 5.46808L93.8304 19.178C93.774 19.5398 93.4629 19.8057 93.0964 19.8057H90.8901C90.6173 19.8057 90.4079 19.5618 90.4509 19.2912ZM73.6459 4.95361H68.2982C67.9331 4.95361 67.622 5.21952 67.5648 5.5806L65.4024 19.2912C65.3593 19.5618 65.5688 19.8057 65.8419 19.8057H68.5858C68.8409 19.8057 69.059 19.6197 69.0988 19.3665L69.7124 15.48C69.7689 15.1179 70.0807 14.8523 70.4458 14.8523H72.1375C75.6603 14.8523 77.6926 13.1479 78.224 9.77055C78.4639 8.29298 78.2334 7.13197 77.5417 6.31866C76.7823 5.42611 75.4353 4.95361 73.6459 4.95361ZM74.2627 9.96122C73.9711 11.8798 72.5051 11.8798 71.0869 11.8798H70.2808L70.8477 8.29659C70.8814 8.08024 71.0673 7.92069 71.287 7.92069H71.6567C72.6216 7.92069 73.5333 7.92069 74.0037 8.47098C74.2844 8.79949 74.3698 9.28719 74.2627 9.96122ZM89.6271 9.89971H87.0685C86.8485 9.89971 86.6618 10.0593 86.6289 10.276L86.5157 10.992L86.3358 10.7326C85.7816 9.92793 84.5464 9.65912 83.3127 9.65912C80.4831 9.65912 78.0674 11.802 77.5967 14.8082C77.3528 16.3075 77.6991 17.7413 78.5496 18.7413C79.3315 19.6606 80.4465 20.0437 81.7747 20.0437C84.0544 20.0437 85.3185 18.5777 85.3185 18.5777L85.2045 19.2894C85.1615 19.5615 85.3709 19.8053 85.6455 19.8053H87.9509C88.316 19.8053 88.6271 19.5394 88.6843 19.1776L90.0688 10.4142C90.1112 10.1446 89.9017 9.89971 89.6271 9.89971ZM86.0583 14.8831C85.8127 16.3458 84.6502 17.3277 83.1694 17.3277C82.4274 17.3277 81.8318 17.0893 81.4502 16.6374C81.0717 16.1888 80.9295 15.5499 81.0486 14.8386C81.2805 13.3881 82.4596 12.3744 83.9176 12.3744C84.6448 12.3744 85.2356 12.6157 85.6253 13.0716C86.0167 13.5321 86.1716 14.1747 86.0583 14.8831Z" fill="#179BD7"/>
<path d="M18.1388 6.07422C18.1167 6.21558 18.0913 6.3601 18.0627 6.50858C17.0795 11.5244 13.7165 13.2572 9.42113 13.2572H7.23421C6.70898 13.2572 6.26634 13.6363 6.18445 14.1512L5.06468 21.2087L4.74762 23.2091C4.69432 23.5471 4.95671 23.852 5.29984 23.852H9.17888C9.63822 23.852 10.0283 23.5203 10.1005 23.0702L10.1387 22.8742L10.8692 18.2682L10.9161 18.0156C10.9874 17.5639 11.3784 17.2322 11.8377 17.2322H12.4179C16.1759 17.2322 19.1179 15.7158 19.9778 11.3278C20.337 9.49471 20.151 7.96415 19.2005 6.88768C18.913 6.56307 18.5561 6.29376 18.1388 6.07422Z" fill="#179BD7"/>
<path d="M17.8414 5.31226C17.6778 5.25981 17.5086 5.21213 17.3353 5.16923C17.1611 5.12729 16.9825 5.0901 16.7989 5.05769C16.1557 4.94326 15.4512 4.88892 14.6963 4.88892H8.32473C8.16781 4.88892 8.01887 4.928 7.8854 4.99857C7.59152 5.15397 7.37323 5.46006 7.32034 5.83477L5.9647 15.28L5.92578 15.5556C6.01509 14.9339 6.49783 14.4762 7.07062 14.4762H9.4556C14.14 14.4762 17.8078 12.3833 18.8798 6.32868C18.9117 6.14942 18.9386 5.97494 18.9628 5.80428C18.6916 5.64599 18.3978 5.51059 18.0814 5.39521C18.0036 5.36661 17.923 5.33897 17.8414 5.31226Z" fill="#222D65"/>
<path d="M7.8635 6.26988C7.91342 5.95738 8.11967 5.70216 8.3968 5.57334C8.5237 5.51449 8.66356 5.4819 8.81142 5.4819H14.825C15.5375 5.4819 16.2024 5.52722 16.8092 5.62264C16.9827 5.64967 17.1513 5.68069 17.3156 5.71566C17.4793 5.75146 17.6387 5.79121 17.7934 5.83493C17.8701 5.8572 17.9462 5.88025 18.0206 5.90332C18.3191 5.99952 18.5965 6.11323 18.8524 6.24443C19.1535 4.37826 18.8501 3.10765 17.8122 1.95709C16.6679 0.690467 14.6025 0.148193 11.9599 0.148193H4.2875C3.74761 0.148193 3.28731 0.529836 3.20372 1.04906L0.00819967 20.7404C-0.0549008 21.13 0.254245 21.4815 0.658276 21.4815H5.39505L6.58431 14.1464L7.8635 6.26988Z" fill="#253B80"/>
</svg>
