<svg width="20" height="21" viewBox="0 0 20 21" fill="none" xmlns="http://www.w3.org/2000/svg">
<path d="M16.4286 3.0535H14.5928C14.4282 2.24971 13.9898 1.52744 13.352 1.00879C12.7143 0.489983 11.9161 0.206747 11.0928 0.206909H8.87849C8.05531 0.20675 7.25714 0.489979 6.61939 1.00879C5.98147 1.52744 5.54318 2.24975 5.37849 3.0535H3.57143C2.6242 3.0535 1.71588 3.42839 1.04608 4.09572C0.376286 4.76305 0 5.66802 0 6.61174V10.8816C0 12.0017 0.529347 13.0563 1.42857 13.7282V16.5748C1.42857 17.5185 1.80485 18.4235 2.47465 19.0908C3.14446 19.7582 4.05278 20.1331 5 20.1331H15C15.9472 20.1331 16.8556 19.7582 17.5253 19.0908C18.1951 18.4235 18.5714 17.5185 18.5714 16.5748V13.7282C19.4707 13.0563 20 12.0017 20 10.8816V6.61174C20 5.66802 19.6237 4.76304 18.9539 4.09572C18.2841 3.4284 17.3758 3.0535 16.4286 3.0535ZM8.87837 1.63021H11.0927C11.5337 1.63291 11.9629 1.7711 12.3221 2.02574C12.6813 2.28038 12.9528 2.63939 13.0998 3.05349H6.87127C7.01811 2.63935 7.2898 2.28035 7.64902 2.02574C8.00824 1.77111 8.43751 1.63291 8.87837 1.63021ZM17.1429 14.4399V16.5748C17.1429 17.1411 16.9171 17.6841 16.5153 18.0845C16.1134 18.4848 15.5684 18.7098 15 18.7098H5C4.43159 18.7098 3.88665 18.4848 3.48469 18.0845C3.08291 17.6841 2.85714 17.1411 2.85714 16.5748V14.4399H7.2498C7.47062 15.2495 8.03886 15.921 8.80257 16.2746C9.56629 16.6283 10.4477 16.6283 11.2114 16.2746C11.9751 15.921 12.5432 15.2495 12.7642 14.4399H17.1429ZM10 15.1515C9.62118 15.1515 9.2578 15.0016 8.9898 14.7347C8.72194 14.4677 8.57143 14.1056 8.57143 13.7282C8.57143 13.3508 8.72194 12.9888 8.9898 12.7217C9.25781 12.4549 9.62118 12.3049 10 12.3049C10.3788 12.3049 10.7422 12.4549 11.0102 12.7217C11.2781 12.9888 11.4286 13.3508 11.4286 13.7282C11.4286 14.1056 11.2781 14.4677 11.0102 14.7347C10.7422 15.0016 10.3788 15.1515 10 15.1515ZM18.5714 10.8816C18.5721 11.4309 18.36 11.9594 17.9796 12.357C17.599 12.7548 17.0794 12.991 16.5285 13.0166H12.7572C12.5333 12.2109 11.9653 11.544 11.2039 11.1928C10.4424 10.8416 9.56457 10.8416 8.80327 11.1928C8.0418 11.544 7.47388 12.2109 7.25 13.0166H3.57143C3.00302 13.0166 2.45808 12.7916 2.05612 12.3913C1.65433 11.9909 1.42857 11.4479 1.42857 10.8816V6.61174C1.42857 6.04543 1.65433 5.50251 2.05612 5.10203C2.45807 4.70173 3.00302 4.4768 3.57143 4.4768H16.4286C16.997 4.4768 17.5419 4.70173 17.9439 5.10203C18.3457 5.50249 18.5714 6.04543 18.5714 6.61174V10.8816Z" fill="#16233C"/>
</svg>
