<svg width="29" height="22" viewBox="0 0 29 22" fill="none" xmlns="http://www.w3.org/2000/svg">
<path d="M1 4.08085C1 3.37293 1.28122 2.694 1.7818 2.19342C2.28238 1.69284 2.96131 1.41162 3.66923 1.41162H25.0231C25.731 1.41162 26.4099 1.69284 26.9105 2.19342C27.4111 2.694 27.6923 3.37293 27.6923 4.08085V17.427C27.6923 18.1349 27.4111 18.8139 26.9105 19.3144C26.4099 19.815 25.731 20.0962 25.0231 20.0962H3.66923C2.96131 20.0962 2.28238 19.815 1.7818 19.3144C1.28122 18.8139 1 18.1349 1 17.427V4.08085Z" stroke="#6B87AE" stroke-width="2" stroke-linecap="round" stroke-linejoin="round"/>
<path d="M6.33847 1.41162C6.33847 2.85146 5.77603 4.23234 4.77487 5.25046C3.77371 6.26858 2.41585 6.84056 1 6.84056M21.6259 19.6109C21.6259 18.1711 22.1883 16.7902 23.1895 15.7721C24.1906 14.754 25.5485 14.182 26.9643 14.182" stroke="#6B87AE" stroke-width="2" stroke-linecap="round" stroke-linejoin="round"/>
</svg>
