<svg width="47" height="47" viewBox="0 0 47 47" fill="none" xmlns="http://www.w3.org/2000/svg">
<rect x="0.5" y="0.5" width="46" height="46" rx="7.5" fill="#EEF4FF" stroke="#DEE6F0"/>
<path d="M25.8867 22.1128C24.8856 21.1122 23.5281 20.55 22.1127 20.55C20.6973 20.55 19.3398 21.1122 18.3387 22.1128L14.5635 25.8868C13.5624 26.8879 13 28.2457 13 29.6614C13 31.0772 13.5624 32.4349 14.5635 33.436C15.5646 34.4371 16.9223 34.9995 18.3381 34.9995C19.7538 34.9995 21.1116 34.4371 22.1127 33.436L23.9997 31.549" stroke="#2A3746" stroke-width="2.5" stroke-linecap="round" stroke-linejoin="round"/>
<path d="M22.1128 25.8867C23.1139 26.8873 24.4714 27.4495 25.8868 27.4495C27.3022 27.4495 28.6597 26.8873 29.6608 25.8867L33.436 22.1127C34.4371 21.1116 34.9995 19.7538 34.9995 18.3381C34.9995 16.9223 34.4371 15.5646 33.436 14.5635C32.4349 13.5624 31.0771 13 29.6614 13C28.2456 13 26.8879 13.5624 25.8868 14.5635L23.9998 16.4505" stroke="#2A3746" stroke-width="2.5" stroke-linecap="round" stroke-linejoin="round"/>
</svg>
