<svg width="11" height="10" viewBox="0 0 11 10" fill="none" xmlns="http://www.w3.org/2000/svg">
<path d="M0.713549 8.06665H8.08645C8.48046 8.06665 8.8 8.47159 8.8 8.79998C8.8 9.20492 8.48048 9.53332 8.08645 9.53332H0.713549C0.319536 9.53332 0 9.12838 0 8.79998C0 8.39505 0.319523 8.06665 0.713549 8.06665Z" fill="white"/>
<path d="M0.713549 5.1333H8.08645C8.48046 5.1333 8.8 5.53824 8.8 5.86663C8.8 6.27157 8.48048 6.59997 8.08645 6.59997H0.713549C0.319536 6.59997 0 6.19503 0 5.86663C0 5.4617 0.319523 5.1333 0.713549 5.1333Z" fill="white"/>
<path d="M0.733364 2.19995H4.39997C4.80492 2.19995 5.13333 2.60489 5.13333 2.93328C5.13333 3.33822 4.80494 3.66662 4.39997 3.66662H0.733364C0.32841 3.66662 0 3.26168 0 2.93328C0 2.52835 0.328397 2.19995 0.733364 2.19995Z" fill="white"/>
<path d="M7.78233 3.66572C7.59257 3.67475 7.40743 3.60693 7.27313 3.47933L6.06269 2.32931H6.06294C5.80103 2.07925 5.80128 1.67498 6.06371 1.42541C6.32614 1.17584 6.75163 1.17511 7.0151 1.42395L7.78184 2.15216L9.84967 0.187545C10.1129 -0.0625148 10.5396 -0.0625148 10.8028 0.187545C11.0658 0.437604 11.0658 0.842812 10.8028 1.09288L8.29102 3.4793C8.16468 3.59933 7.99342 3.66691 7.8147 3.66667L7.78233 3.66572Z" fill="white"/>
</svg>
