<svg width="73" height="32" viewBox="0 0 73 32" fill="none" xmlns="http://www.w3.org/2000/svg">
<path fill-rule="evenodd" clip-rule="evenodd" d="M39.5214 4.97425L34.4316 6.06658V1.94002L39.5214 0.86792V4.97425ZM18.8379 3.21437L13.8901 4.26624L13.8699 20.4691C13.8699 23.4629 16.1207 25.6677 19.1218 25.6677C20.7846 25.6677 22.0013 25.3643 22.6705 25.0002V20.8939C22.0216 21.1568 18.8177 22.0873 18.8177 19.0935V11.9125H22.6705V7.6039H18.8177L18.8379 3.21437ZM73 16.5245C73 11.3461 70.4856 7.25997 65.6797 7.25997C60.8536 7.25997 57.9336 11.3461 57.9336 16.4841C57.9336 22.5728 61.3808 25.6475 66.3286 25.6475C68.7417 25.6475 70.5667 25.1013 71.9456 24.3326V20.287C70.5667 20.9747 68.985 21.3995 66.9775 21.3995C65.0106 21.3995 63.2667 20.7118 63.0436 18.3248H72.9595C72.9595 18.2134 72.9667 17.9605 72.9751 17.669L72.9752 17.6683L72.9752 17.6673L72.9752 17.666L72.9753 17.665C72.9866 17.2692 73 16.8034 73 16.5245ZM62.9826 14.6029C62.9826 12.3171 64.3817 11.3664 65.6592 11.3664C66.8962 11.3664 68.2142 12.3171 68.2142 14.6029H62.9826ZM6.85392 11.6496C5.77919 11.6496 5.1303 11.953 5.1303 12.7419C5.1303 13.6033 6.24705 13.9822 7.63251 14.4523C9.89113 15.2186 12.8639 16.2272 12.8764 19.9634C12.8764 23.5843 9.97671 25.6678 5.75891 25.6678C4.01502 25.6678 2.1089 25.3239 0.223057 24.5148V19.7005C1.9264 20.631 4.07585 21.3187 5.75891 21.3187C6.89448 21.3187 7.70559 21.0153 7.70559 20.0848C7.70559 19.1307 6.49501 18.6946 5.03351 18.1681C2.80774 17.3663 0 16.3548 0 12.9847C0 9.40428 2.73751 7.26008 6.85392 7.26008C8.53698 7.26008 10.1998 7.52305 11.8828 8.19058V12.9442C10.3417 12.1149 8.39504 11.6496 6.85392 11.6496ZM28.9771 9.10076L28.6526 7.60387H24.2726V25.3036H29.3421V13.3082C30.5385 11.7507 32.5663 12.0339 33.1949 12.2564V7.60387C32.546 7.36113 30.1735 6.91611 28.9771 9.10076ZM34.4314 7.60398H39.5212V25.3037H34.4314V7.60398ZM46.1317 8.83778C46.8414 8.19047 48.1189 7.25997 50.1061 7.25997C53.6548 7.25997 57.0006 10.456 57.0209 16.3222C57.0209 22.7346 53.7156 25.6475 50.0859 25.6475C48.3014 25.6475 47.2267 24.899 46.4967 24.3731L46.4764 30.0977L41.4069 31.1698V7.58363H45.8681L46.1317 8.83778ZM46.4966 20.2466C46.9833 20.7725 47.693 21.1973 48.8894 21.1973C50.7549 21.1973 52.0121 19.1745 52.0121 16.4639C52.0121 13.814 50.7346 11.7507 48.8894 11.7507C47.7335 11.7507 47.0035 12.1553 46.4763 12.7419L46.4966 20.2466Z" fill="#6461FC"/>
</svg>
