<svg width="48" height="38" viewBox="0 0 48 38" fill="none" xmlns="http://www.w3.org/2000/svg">
<path opacity="0.3" d="M24.3145 16.1655C24.2771 16.1139 24.2293 16.0722 24.1747 16.0436C24.1201 16.0149 24.0602 16 23.9995 16C23.9388 16 23.8789 16.0149 23.8243 16.0436C23.7698 16.0722 23.722 16.1139 23.6845 16.1655L18.0849 23.8049C18.0387 23.8684 18.01 23.9447 18.0022 24.025C17.9943 24.1053 18.0076 24.1864 18.0405 24.2589C18.0733 24.3315 18.1245 24.3926 18.188 24.4353C18.2516 24.478 18.325 24.5005 18.3998 24.5003H22.0946V37.5687C22.0946 37.8059 22.2746 38 22.4946 38H25.4944C25.7144 38 25.8944 37.8059 25.8944 37.5687V24.5057H29.5992C29.9342 24.5057 30.1192 24.0906 29.9142 23.8103L24.3145 16.1655Z" fill="#16233C"/>
<path opacity="0.3" d="M40.0393 11.024C37.5857 4.58133 31.3339 0 24.0107 0C16.6875 0 10.4357 4.576 7.98214 11.0187C3.39107 12.2187 0 16.384 0 21.3333C0 27.2267 4.79464 32 10.7089 32H12.8571C13.0929 32 13.2857 31.808 13.2857 31.5733V28.3733C13.2857 28.1387 13.0929 27.9467 12.8571 27.9467H10.7089C8.90357 27.9467 7.20536 27.232 5.94107 25.936C4.68214 24.6453 4.0125 22.9067 4.07143 21.104C4.11964 19.696 4.60179 18.3733 5.475 17.2587C6.36964 16.1227 7.62321 15.296 9.01607 14.928L11.0464 14.4L11.7911 12.448C12.2518 11.232 12.8946 10.096 13.7036 9.06667C14.5022 8.04644 15.4481 7.1496 16.5107 6.40533C18.7125 4.864 21.3054 4.048 24.0107 4.048C26.7161 4.048 29.3089 4.864 31.5107 6.40533C32.5768 7.152 33.5196 8.048 34.3179 9.06667C35.1268 10.096 35.7696 11.2373 36.2304 12.448L36.9696 14.3947L38.9946 14.928C41.8982 15.7067 43.9286 18.336 43.9286 21.3333C43.9286 23.0987 43.2375 24.7627 41.9839 26.0107C41.3692 26.6263 40.6378 27.1144 39.8323 27.4467C39.0268 27.779 38.163 27.9489 37.2911 27.9467H35.1429C34.9071 27.9467 34.7143 28.1387 34.7143 28.3733V31.5733C34.7143 31.808 34.9071 32 35.1429 32H37.2911C43.2054 32 48 27.2267 48 21.3333C48 16.3893 44.6196 12.2293 40.0393 11.024Z" fill="#16233C"/>
</svg>
