<svg width="11" height="12" viewBox="0 0 11 12" fill="none" xmlns="http://www.w3.org/2000/svg">
<path d="M0.507386 11.1328C0.872571 11.5294 1.38708 11.7549 1.92615 11.7548H9.07078C9.61002 11.755 10.1247 11.5294 10.4901 11.1327C10.8554 10.736 11.038 10.2045 10.9934 9.66699L10.8728 8.1807H10.8729C10.8305 7.69897 10.6097 7.25046 10.2539 6.92312C9.89794 6.59577 9.43253 6.41315 8.94904 6.41112H8.61631C8.99672 5.70566 9.14563 4.89836 9.04194 4.10356C8.93835 3.30878 8.58747 2.56666 8.03888 1.98226C7.37991 1.28486 6.4627 0.889648 5.50314 0.889648C4.54365 0.889648 3.62652 1.28484 2.9674 1.98226C2.41951 2.56631 2.06896 3.30769 1.96536 4.10179C1.86175 4.8959 2.01026 5.70243 2.39 6.40742H2.04886C1.56519 6.41011 1.09996 6.5935 0.744435 6.92161C0.388915 7.24962 0.168878 7.69873 0.127419 8.18061L0.00684034 9.6669C-0.0384822 10.2039 0.14289 10.7355 0.507143 11.1328L0.507386 11.1328ZM3.65962 2.65016C4.13655 2.14473 4.80066 1.85825 5.49554 1.85825C6.19041 1.85825 6.85453 2.14473 7.33145 2.65016C7.82739 3.17679 8.10352 3.87293 8.10352 4.59631C8.10352 5.31968 7.82739 6.01582 7.33145 6.54245L5.49916 8.45918L3.65962 6.54245C3.16369 6.01582 2.88756 5.31968 2.88756 4.59631C2.88756 3.87293 3.16369 3.17679 3.65962 2.65016ZM0.965455 9.74657L1.08603 8.26028V8.26019C1.10605 8.01846 1.21637 7.79319 1.39512 7.62923C1.57389 7.46518 1.80782 7.37462 2.05039 7.37546H3.12324L5.15077 9.48979C5.24167 9.58447 5.3673 9.63795 5.49854 9.63795C5.62979 9.63795 5.75535 9.58447 5.84631 9.48979L7.87631 7.37546H8.94915C9.19166 7.37462 9.42567 7.46518 9.60435 7.62923C9.78312 7.79319 9.89345 8.01846 9.91344 8.26019L10.034 9.74648V9.74657C10.0563 10.0158 9.96465 10.282 9.78135 10.4805C9.59796 10.6789 9.33981 10.7914 9.06966 10.7905H1.92611C1.65594 10.7914 1.39781 10.6789 1.21449 10.4805C1.0311 10.282 0.939456 10.0158 0.961735 9.74657H0.965455Z" fill="white"/>
<path d="M5.49908 5.66957C5.90159 5.66957 6.28763 5.50972 6.57225 5.2251C6.8568 4.94047 7.01671 4.55444 7.01671 4.15193C7.01671 3.74942 6.85678 3.36338 6.57225 3.07883C6.28761 2.79419 5.90159 2.63428 5.49908 2.63428C5.09657 2.63428 4.71052 2.79421 4.42591 3.07883C4.14136 3.36338 3.98145 3.7494 3.98145 4.15193C3.98212 4.55427 4.14222 4.93988 4.42668 5.22435C4.71115 5.5089 5.09676 5.66898 5.4991 5.66959L5.49908 5.66957ZM5.49908 3.59863C5.64581 3.59863 5.78656 3.6569 5.89033 3.76066C5.99409 3.86443 6.05236 4.00518 6.05236 4.15192C6.05236 4.29865 5.99409 4.43939 5.89033 4.54317C5.78657 4.64693 5.64582 4.7052 5.49908 4.7052C5.35234 4.7052 5.2116 4.64693 5.10783 4.54317C5.00406 4.43941 4.94579 4.29866 4.94579 4.15192C4.94613 4.00527 5.00449 3.86476 5.10816 3.76101C5.21184 3.65733 5.35244 3.59898 5.49907 3.59864L5.49908 3.59863Z" fill="white"/>
</svg>
