<svg width="47" height="47" viewBox="0 0 47 47" fill="none" xmlns="http://www.w3.org/2000/svg">
<rect x="0.5" y="0.5" width="46" height="46" rx="7.5" fill="#EEF4FF" stroke="#DEE6F0"/>
<path fill-rule="evenodd" clip-rule="evenodd" d="M29.4988 25.9813C29.1994 25.8261 27.7313 25.0781 27.458 24.974C27.1847 24.8709 26.9858 24.8198 26.7858 25.1302C26.5869 25.4386 26.0151 26.1365 25.8413 26.3427C25.6665 26.55 25.4926 26.575 25.1942 26.4209C24.8958 26.2646 23.9332 25.9386 22.7927 24.8844C21.9054 24.0636 21.3056 23.05 21.1317 22.7396C20.9579 22.4302 21.1126 22.2625 21.2624 22.1084C21.397 21.9698 21.5608 21.7469 21.7105 21.5667C21.8602 21.3854 21.9095 21.2563 22.0089 21.049C22.1094 20.8427 22.0592 20.6625 21.9838 20.5073C21.9095 20.3521 21.3126 18.8282 21.0634 18.2084C20.8212 17.6052 20.5751 17.6875 20.3922 17.6771C20.2174 17.6688 20.0184 17.6667 19.8194 17.6667C19.6205 17.6667 19.2969 17.7438 19.0236 18.0542C18.7493 18.3636 17.9786 19.1125 17.9786 20.6365C17.9786 22.1594 19.0478 23.6313 19.1975 23.8386C19.3472 24.0448 21.3026 27.1719 24.2979 28.5125C25.0113 28.8313 25.567 29.0219 26.0001 29.1636C26.7155 29.4 27.3666 29.3667 27.8811 29.2865C28.4538 29.1979 29.6475 28.5375 29.8967 27.8146C30.1449 27.0917 30.1449 26.4719 30.0705 26.3427C29.9962 26.2136 29.7972 26.1365 29.4978 25.9813H29.4988ZM24.0507 33.6927H24.0467C22.2676 33.6931 20.5212 33.1973 18.9905 32.2573L18.6287 32.0344L14.8687 33.0573L15.8725 29.2573L15.6364 28.8677C14.6418 27.2264 14.1154 25.3269 14.1181 23.3886C14.1202 17.7115 18.5755 13.0927 24.0547 13.0927C26.7074 13.0927 29.2014 14.1657 31.0764 16.1115C32.0012 17.0663 32.7342 18.2017 33.233 19.452C33.7318 20.7023 33.9864 22.0428 33.9823 23.3959C33.9803 29.0729 29.5249 33.6927 24.0507 33.6927V33.6927ZM32.5032 14.6334C31.3961 13.4781 30.0788 12.5621 28.6277 11.9384C27.1766 11.3147 25.6206 10.9958 24.0497 11C17.4642 11 12.1025 16.5573 12.1005 23.3875C12.0974 25.5612 12.6475 27.6973 13.6951 29.5802L12 36L18.3343 34.2771C20.0866 35.2668 22.0502 35.7854 24.0457 35.7854H24.0507C30.6363 35.7854 35.9979 30.2281 35.9999 23.3969C36.0048 21.7691 35.6983 20.1564 35.0981 18.6521C34.4978 17.1479 33.6159 15.782 32.5032 14.6334" fill="#2A3746"/>
</svg>
